<?xml version="1.0" standalone="no"?><!DOCTYPE svg PUBLIC "-//W3C//DTD SVG 1.1//EN" "http://www.w3.org/Graphics/SVG/1.1/DTD/svg11.dtd"><svg t="1503043547699" class="icon" style="" viewBox="0 0 1024 1024" version="1.1" xmlns="http://www.w3.org/2000/svg" p-id="7481" xmlns:xlink="http://www.w3.org/1999/xlink" width="32" height="32"><defs><style type="text/css"></style></defs><path d="M514.232708 452.461122m-410.406065 0a410.406065 410.406065 0 1 0 820.81213 0 410.406065 410.406065 0 1 0-820.81213 0Z" fill="#C55C44" p-id="7482"></path><path d="M457.018136 612.139813s17.621218-4.579914 55.863497-4.579914 59.103786 4.579914 59.103786 4.579914l7.247714 30.536574c98.857437 18.800546 219.091621 94.46072 218.690878 98.468144l-112.791824 88.541181-168.930116 48.85623s-190.066418-39.696402-224.41577-63.351656-75.728873-78.625668-75.728873-78.625669c77.858533-47.115862 155.774314-78.54552 233.804593-95.972091z" fill="#FFFFFF" p-id="7483"></path><path d="M465.82302 542.467876l1.557171 118.32207h93.476038V542.467876h-95.033209z" fill="#E2A77A" p-id="7484"></path><path d="M352.195362 343.630923s-36.238567-4.121922-36.238567 47.516605 50.37905 62.401324 50.37905 62.401324 80.858376 152.854619 146.557238 152.854619 144.874119-152.659973 144.87412-152.659973 51.043138-30.158732 51.936221-63.740949-18.193707-39.879598-31.235012-41.791712l6.686674-35.494331-172.742894-83.205582-165.666927 75.568576z" fill="#EAB78C" p-id="7485"></path><path d="M347.890243 355.080708s-14.174833-139.687367 15.056466-184.341526c5.564595-8.50719 19.544782-6.171434 26.849744-12.21692 31.063265-25.693316 49.428718-45.032001 103.048058-45.032001 53.001051 0 132.737348 29.116801 159.277948 50.37905 56.75658 52.669007 28.09777 187.776461 28.09777 187.776461l-24.433839 77.858533-5.198202-63.351656s-5.198202-79.381354-116.867947-79.381354c-33.96006 0-97.426214-24.044547-115.390926-18.697498-41.104725 12.342867-30.364828 84.247512-42.364201 96.556031v64.874477z" fill="" p-id="7486"></path><path d="M494.161236 637.317888l3.331887 23.472058h-12.984055M535.036966 637.317888l-3.343337 23.472058h12.984055" fill="#EDEDED" p-id="7487"></path><path d="M488.230248 655.408547h50.42485l-25.132277 26.082608-25.292573-26.082608z" fill="#EBC054" p-id="7488"></path><path d="M502.313483 666.171344l-25.075028 193.352506 35.769126 29.494644 38.299528-29.826688-25.819263-193.020462h-23.174363z" fill="#EBC054" p-id="7489"></path><path d="M512 0C262.509202 0 60.248764 202.260438 60.248764 451.751236c0 185.898696 104.284634 335.478677 264.741911 404.830019 86.251224 83.354429 187.009325 167.418745 187.009325 167.418745s119.249502-92.411208 195.79131-167.418745C859.237605 783.63468 963.751236 631.112105 963.751236 451.751236 963.751236 202.260438 761.502247 0 512 0z m0.881633 861.241318c-240.788962 0-402.940806-232.888611-402.940805-398.704386 0-222.538006 180.4028-402.940806 402.940805-402.940805s402.917906 180.41425 402.917906 402.940805c0 159.976385-162.128944 398.704385-402.917906 398.704386z" fill="#0DB166" p-id="7490"></path><path d="M457.041036 614.223673l-7.144665 28.452714 28.750408 32.402889 15.514457-37.761388-37.1202-23.094215zM572.099917 614.223673l7.133216 28.452714-28.738959 32.402889-15.514457-37.761388 37.1202-23.094215z" fill="#FFFFFF" p-id="7491"></path></svg>