<?xml version="1.0" standalone="no"?><!DOCTYPE svg PUBLIC "-//W3C//DTD SVG 1.1//EN" "http://www.w3.org/Graphics/SVG/1.1/DTD/svg11.dtd"><svg t="1503474928027" class="icon" style="" viewBox="0 0 1024 1024" version="1.1" xmlns="http://www.w3.org/2000/svg" p-id="1845" xmlns:xlink="http://www.w3.org/1999/xlink" width="200" height="200"><defs><style type="text/css"></style></defs><path d="M512.01 0C794.768 0 1024 229.232 1024 512.01 1024 794.768 794.768 1024 512.01 1024 229.232 1024 0 794.768 0 512.01 0 229.232 229.232 0 512.01 0z" fill="#FFEBB1" p-id="1846"></path><path d="M98.87 524.668l0.02 10.218c0.058 25.904 2.012 31.59 5.646 47.042l0.274-0.02c31.12 182.366 181.858 323.92 368.618 341.054l1.562 0.136c2.462 0.214 4.942 0.41 7.424 0.586l3.282 0.214c2.11 0.156 4.2 0.254 6.33 0.372 1.368 0.058 2.736 0.078 4.122 0.156 1.894 0.058 3.77 0.136 5.666 0.196 2.188 0.04 4.376 0.058 6.584 0.058 1.054 0.04 2.148 0.058 3.204 0.058l0.488-0.02c3.106 0 6.192-0.04 9.28-0.098l1.466-0.04c2.93-0.078 5.822-0.196 8.732-0.332l2.462-0.118c2.578-0.156 5.158-0.312 7.736-0.508l3.634-0.274c1.68-0.136 3.34-0.294 5.02-0.45 185.12-17.27 334.762-156.754 367.328-337.028 3.966-15.472 4.004-20.298 5.998-44.814h0.02l0.45-0.02h0.02c0.058-1.562 0.078-3.086 0.118-4.63V533.798c2.598-30.768-1.406-81.326-11.858-120.456l-0.546-2.09C866.992 232.024 704.808 99.26 511.6 99.26c-197.858 0-363.188 139.29-403.372 325.132-0.04 0.136-0.078 0.294-0.136 0.43l-0.664 2.52-0.41 1.524-0.722 2.716c-5.098 21.06-6.7 46.182-7.19 68.16a368.132 368.132 0 0 0-0.214 12.268v0.782c-0.022 4.18-0.022 8.146-0.022 11.876z" fill="#FFEDB9" p-id="1847"></path><path d="M935.934 294.364c5.314 0 10.334 0.86 14.768 2.384 4.806-3.204 11.39-5.176 18.638-5.176 1.72 0 3.418 0.098 5.04 0.312a510.112 510.112 0 0 1 22.252 54.564c-3.848 2.91-9.436 4.728-15.628 4.728-5.842 0-11.136-1.622-14.944-4.24-3.81 2.618-9.104 4.24-14.944 4.24-5.548 0-10.608-1.466-14.378-3.848-3.828 2.852-9.358 4.65-15.512 4.65-5.764 0-10.98-1.562-14.768-4.122-1.738 0.274-3.536 0.41-5.392 0.41-13.85 0-25.064-7.638-25.064-17.036 0-9.416 11.214-17.054 25.064-17.054 0.742 0 1.504 0.04 2.228 0.078 1.774-11.198 15.702-19.89 32.64-19.89zM549.558 185.744c6.134 0 11.936 0.996 17.054 2.754 5.568-3.692 13.166-5.978 21.548-5.978 14.534 0 26.706 6.838 29.968 16.038 7.268 1.484 13.088 5.216 15.746 10.002 0.88-0.078 1.758-0.098 2.656-0.098 13.42 0 24.302 7.404 24.302 16.528 0 9.124-10.882 16.528-24.302 16.528-4.18 0-8.126-0.722-11.546-1.992-2.97 6.876-12.288 11.898-23.346 11.898-6.76 0-12.854-1.876-17.27-4.904-4.416 3.028-10.51 4.904-17.27 4.904-6.428 0-12.268-1.7-16.606-4.454-4.454 3.302-10.842 5.372-17.954 5.372-6.642 0-12.66-1.816-17.054-4.748a43.18 43.18 0 0 1-6.232 0.45c-16 0-28.952-8.81-28.952-19.692s12.952-19.692 28.952-19.692c0.86 0 1.738 0.04 2.578 0.078 2.056-12.912 18.172-22.994 37.728-22.994z" fill="#FFB54C" p-id="1848"></path><path d="M526.876 82.656s11.584-2.482 21.274-0.626c9.71 1.856 19.828 9.904 30.788 10.53 10.96 0.626 8.674-3.516 8.674-3.516s-7.032 1.036-8.888-4.942c-1.856-5.998 5.782-10.764 17.562-19.008 11.78-8.264 14.046-16.528 11.78-21.704 0 0-2.07 3.302-11.78 8.478-9.71 5.158-16.722 14.672-24.36 21.47-7.658 6.838-8.068 7.248-15.296 5.802s-22.72-3.732-29.754 3.516zM382.586 182.482s11.584-2.482 21.274-0.626c9.71 1.856 19.828 9.924 30.788 10.55 10.96 0.606 8.674-3.516 8.674-3.516s-7.014 1.036-8.888-4.962c-1.856-5.998 5.802-10.744 17.562-19.008 11.78-8.264 14.066-16.528 11.78-21.704 0 0-2.07 3.322-11.78 8.478-9.71 5.176-16.722 14.672-24.36 21.49-7.658 6.818-8.068 7.228-15.296 5.782-7.23-1.446-22.722-3.712-29.754 3.516zM586.382 307.178s11.566-2.482 21.274-0.626c9.71 1.856 19.828 9.924 30.788 10.53 10.94 0.626 8.674-3.516 8.674-3.516s-7.032 1.054-8.888-4.942c-1.856-5.998 5.782-10.764 17.562-19.008 11.78-8.264 14.046-16.528 11.78-21.704 0 0-2.07 3.322-11.78 8.478-9.71 5.176-16.742 14.672-24.38 21.47-7.638 6.838-8.048 7.248-15.276 5.802-7.23-1.446-22.74-3.712-29.754 3.516z" fill="" p-id="1849"></path><path d="M498.062 526.7l117.468-142.844 28.19 38.446 137.902-166.482 113.19 154.254 0.176 0.234-113.366-154.488V423.162l48.76 18.696-97.502 37.372 77.342 27.35-32.312 20.122H498.062z m396.748-116.628l84.96 116.628-84.784-116.394-0.176-0.234z" fill="#FFDF81" p-id="1850"></path><path d="M781.622 255.82l113.188 154.252 84.962 116.628H777.91l32.312-20.122-77.342-27.35 97.502-37.37-48.76-18.696v-19.458z" fill="#F98B00" p-id="1851"></path><path d="M308.214 193.286c37.568 0 68.024 30.456 68.024 68.042 0 37.568-30.456 68.042-68.024 68.042-37.586 0-68.042-30.476-68.042-68.042 0-37.586 30.456-68.042 68.042-68.042z" fill="#FC9038" p-id="1852"></path><path d="M406.576 310.948l59.818-75.152 124.95 177.226-93.282 113.678-269.006-2.618z" fill="#FFDF81" p-id="1853"></path><path d="M466.394 235.796l124.95 177.228-93.282 113.678c-21.196-14.632-25.084-49.934-40.576-67.808l31.14-20.2-60.13-22.114 75.798-30.26-37.9-15.12v-135.404z" fill="#F98B00" p-id="1854"></path><path d="M174.804 269.358c8.244 0 16.038 1.328 22.934 3.692 7.444-4.962 17.66-8.03 28.932-8.03 19.516 0 35.886 9.182 40.262 21.528 9.748 2.012 17.582 7.014 21.138 13.44a53.84 53.84 0 0 1 3.576-0.118c27.936 0-1.758 46.768-15.53 41.748-3.946 9.22-16.488 15.96-31.354 15.96-9.064 0-17.27-2.5-23.188-6.584-5.92 4.082-14.124 6.584-23.208 6.584-8.616 0-16.468-2.286-22.31-5.978-5.978 4.416-14.554 7.208-24.106 7.208-8.928 0-17.016-2.422-22.916-6.388a55.706 55.706 0 0 1-8.38 0.606c-21.49 0-38.896-11.838-38.896-26.452 0-14.594 17.406-26.432 38.896-26.432 1.172 0 2.344 0.04 3.478 0.098 2.752-17.364 24.398-30.882 50.672-30.882z" fill="#FFB54C" p-id="1855"></path><path d="M0.156 524.082h1023.688C1017.436 801.274 790.744 1024 512.01 1024S6.584 801.274 0.156 524.082z" fill="#4CCFDF" p-id="1856"></path><path d="M1013.528 615.49c-147.592-28.756-468.504-72.692-657.18 40.342-250.916 150.308 59.388 208.484 167.264 237.592 107.876 29.088 61.81 19.398 187.874 29.088a968.052 968.052 0 0 0 103.226 2.422c100.358-73.688 172.894-183.068 198.816-309.444z" fill="#FFDF81" p-id="1857"></path><path d="M9.964 612.892c120.75 3.888 428.006 27.35 556.082 164.158 94.376 100.824 12.444 187.074-78.69 246.364-237.182-11.252-432.09-183.87-477.392-410.522z" fill="#FFD34E" p-id="1858"></path><path d="M295.926 976.274c190.746-251.834 527.268-246.072 671.538-230.17C882.464 911.124 710.434 1024 512.01 1024c-77.224 0-150.424-17.114-216.084-47.726z" fill="#FFC928" p-id="1859"></path><path d="M229.056 524.082h746.652v3.928H229.056z" fill="#F98B00" p-id="1860"></path><path d="M684.646 551.804l0.196-7.208 11.448 0.312 13.362 0.352c-2.5-1.074-5.08-2.832-7.658-5.176l21.06 0.566a114.24 114.24 0 0 0-1.816-9.534l-0.156-0.606-0.058-0.274-0.078-0.352-0.156-0.626-0.078-0.294-0.078-0.312-0.156-0.626-0.098-0.312-0.078-0.294-0.156-0.606-0.098-0.352-0.078-0.254-0.176-0.626-0.098-0.372-0.058-0.234-0.196-0.586-0.118-0.41-0.058-0.196-0.176-0.606-0.136-0.43-0.058-0.176-0.196-0.586-0.136-0.468-0.058-0.136-0.196-0.606-0.156-0.468-0.04-0.118-0.196-0.586-0.176-0.508-0.04-0.078-0.196-0.586-0.196-0.546-0.02-0.04-0.214-0.586-0.196-0.566-0.02-0.02-0.214-0.586-0.214-0.566v-0.02l-0.234-0.566-0.234-0.586v-0.04l-0.214-0.528-0.234-0.586-0.04-0.058-0.196-0.508-0.234-0.566-0.254-0.566-0.234-0.566-0.04-0.136-0.214-0.43-0.234-0.566-0.058-0.156-0.196-0.41-0.254-0.566-0.078-0.176-0.176-0.39-0.254-0.546-0.098-0.214-0.176-0.352-0.254-0.546-0.118-0.234-0.156-0.332-0.254-0.546-0.136-0.254-0.136-0.294-0.294-0.566-0.118-0.274-0.136-0.274-0.294-0.546-0.156-0.294-0.118-0.254-0.274-0.546-0.176-0.332-0.118-0.214-0.294-0.528-0.176-0.372-0.098-0.176-0.294-0.546-0.214-0.372-0.078-0.156-0.312-0.546-0.214-0.41-0.078-0.118-0.294-0.546-0.254-0.41-0.058-0.118-0.312-0.528-0.254-0.468-0.04-0.078-0.312-0.508-0.294-0.488-0.02-0.058-0.312-0.528h-0.02c-5.49-9.162-11.956-17.778-19.048-26.042 2.656 11.058 3.242 21.078 2.482 29.89l-0.02 0.156-0.02 0.156-0.02 0.136v0.098l-0.02 0.058a50.06 50.06 0 0 1-0.41 3.536l-0.02 0.136-0.02 0.136a70.528 70.528 0 0 1-3.086 12.718v-0.02l-0.254-0.586-0.02-0.058v-0.02l2.13-79.96-4.102-0.118c-7.854 8.068-15.452 16.274-22.466 24.85l-0.294 0.352-0.294 0.372-0.312 0.372-0.294 0.352v0.02l-0.294 0.352-0.274 0.352-0.294 0.372-0.294 0.372-0.058 0.078-0.234 0.294-0.294 0.352-0.284 0.364-0.274 0.372-0.118 0.136-0.176 0.234-0.294 0.352-0.294 0.39-0.274 0.352-0.156 0.214-0.136 0.156-0.274 0.372-0.274 0.372-0.294 0.372-0.196 0.274-0.078 0.098-0.294 0.372-0.274 0.372-0.274 0.372-0.254 0.332-0.02 0.058-0.294 0.372-0.274 0.372-0.274 0.372-0.274 0.372-0.02 0.02-0.254 0.352-0.274 0.39-0.274 0.372-0.274 0.372-0.058 0.098-0.196 0.294-0.274 0.372-0.274 0.39-0.274 0.372-0.098 0.156-0.156 0.214-0.274 0.39-0.254 0.372-0.274 0.39-0.528 0.762-0.254 0.39-0.274 0.372-0.196 0.294-0.058 0.098-0.254 0.39-0.254 0.39-0.254 0.39-0.254 0.352-0.02 0.02-0.234 0.39-0.274 0.39-0.234 0.39-0.254 0.39-0.04 0.04-0.214 0.352-0.254 0.39-0.254 0.39-0.254 0.39-0.058 0.098-0.176 0.294-0.254 0.39-0.234 0.39-0.234 0.39-0.118 0.176-0.136 0.234-0.234 0.39a159.148 159.148 0 0 0-7.698 14.104l-0.136 0.274-0.136 0.254-0.02 0.058-0.098 0.214-0.118 0.274-0.136 0.274-0.118 0.254-0.136 0.274-0.118 0.274-0.098 0.214-0.04 0.058-0.118 0.274-0.118 0.274-0.136 0.274-0.118 0.274-0.118 0.274-0.136 0.274-0.04 0.078-0.078 0.196-0.118 0.274-0.118 0.274-0.118 0.274-0.136 0.274-0.118 0.274-0.098 0.234-0.02 0.04-0.118 0.274-0.118 0.294-0.118 0.274-0.118 0.274-0.118 0.274-0.098 0.274-0.058 0.098-0.058 0.196-0.118 0.274-0.118 0.274-0.118 0.274-0.098 0.274-0.118 0.294-0.098 0.254-0.02 0.02-0.118 0.274-0.098 0.294-0.118 0.274-0.098 0.294-0.118 0.274-0.098 0.274-0.214 0.586-0.118 0.274-0.098 0.294-0.118 0.274-0.098 0.274-0.098 0.274v0.02l-0.118 0.274-0.098 0.294-0.098 0.292-0.098 0.274-0.098 0.294-0.118 0.294-0.04 0.136-0.058 0.136-0.098 0.294-0.098 0.294-0.098 0.274-0.098 0.294-0.098 0.294-0.098 0.294-0.098 0.294-0.098 0.274-0.098 0.294a136.33 136.33 0 0 0-5.92 27.194l42.1 1.134 15.55 0.43-0.196 7.19-57.65-1.544 0.04 0.058 0.02 0.058 0.04 0.058 0.02 0.04 0.04 0.058 0.02 0.058 0.04 0.058 0.02 0.058 0.04 0.058 0.02 0.058 0.04 0.04v0.02l0.02 0.058 0.04 0.058 0.02 0.058 0.04 0.058 0.04 0.058 0.02 0.058 0.04 0.04 0.02 0.058 0.04 0.058 0.02 0.058 0.02 0.02 0.02 0.04 0.04 0.058 0.02 0.058 0.04 0.058 0.02 0.04 0.04 0.058 0.02 0.058 0.04 0.058 0.04 0.058 0.058 0.118 0.02 0.04 0.04 0.058 0.04 0.058 0.02 0.058 0.04 0.058 0.02 0.058 0.04 0.04 0.04 0.058 0.02 0.058 0.04 0.058 0.02 0.04v0.02l0.04 0.04 0.04 0.058 0.02 0.058 0.04 0.058 0.04 0.058 0.04 0.04 0.02 0.058 0.04 0.058 0.02 0.04 0.04 0.058 0.02 0.04 0.02 0.02 0.02 0.058 0.04 0.058 0.04 0.04 0.04 0.058 0.02 0.058 0.04 0.058 0.02 0.04 0.04 0.058 0.04 0.058 0.02 0.04 0.058 0.098 0.058 0.078 0.04 0.078 0.058 0.078 0.058 0.098 0.04 0.078 0.02 0.02 0.04 0.058 0.058 0.078 0.04 0.078 0.058 0.098 0.04 0.078 0.058 0.078 0.02 0.02 0.04 0.058 0.058 0.078 0.058 0.078 0.04 0.078 0.058 0.078 0.058 0.098 0.156 0.234 0.058 0.078 0.058 0.078 0.04 0.078 0.058 0.058v0.02l0.058 0.078 0.058 0.078 0.058 0.078 0.04 0.078 0.118 0.156h0.02l0.196 0.312 0.058 0.078 0.058 0.078h0.02l0.098 0.156 0.058 0.058 0.04 0.078 0.058 0.078 0.078 0.078 0.02 0.04 0.02 0.04 0.058 0.078 0.058 0.058 0.058 0.078 0.118 0.156 0.04 0.058 0.02 0.02 0.058 0.078 0.058 0.078 0.058 0.058 0.058 0.078 0.058 0.078 0.058 0.058 0.058 0.078 0.058 0.078 0.058 0.078 0.058 0.058 0.058 0.078 0.058 0.078 0.058 0.078 0.058 0.058 0.058 0.078 0.078 0.098 0.078 0.078 0.058 0.098 0.04 0.02 0.04 0.058 0.078 0.078 0.078 0.098 0.058 0.078 0.058 0.058 0.02 0.02 0.058 0.078 0.078 0.078 0.078 0.098 0.078 0.078v0.02l0.058 0.058 0.078 0.078 0.078 0.098 0.058 0.078 0.04 0.04 0.04 0.04 0.078 0.078 0.078 0.078 0.078 0.078 0.058 0.098 0.078 0.078 0.078 0.078 0.078 0.078 0.078 0.078 0.02 0.02 0.058 0.058 0.058 0.078 0.078 0.078 0.078 0.078 0.058 0.058 0.02 0.02 0.078 0.078 0.078 0.078 0.058 0.078 0.156 0.156 0.078 0.078 0.078 0.078 0.078 0.078 0.04 0.04 0.04 0.04 0.078 0.058 0.078 0.078 0.078 0.078 0.058 0.078h109.79v-0.488l0.136-4.864 0.098-3.496-57.054-1.54z m-2.872-48.332l0.058 0.196 1.856-68.922c-4.298 12.992-6.114 25.708-6.114 37.646v1.174l0.02 0.43v0.78l0.02 0.8v0.136l0.02 0.644 0.02 0.43 0.02 0.372 0.02 0.704 0.02 0.058 0.04 0.8v0.196l0.04 0.586 0.02 0.488 0.02 0.274 0.058 0.782 0.058 0.762 0.02 0.274 0.058 0.488 0.04 0.546 0.02 0.234 0.078 0.762v0.04l0.078 0.704 0.02 0.332 0.058 0.43 0.078 0.606v0.156l0.098 0.742 0.02 0.118 0.078 0.626 0.058 0.39 0.04 0.352 0.098 0.664v0.098l0.118 0.722 0.04 0.176 0.078 0.566 0.058 0.43 0.058 0.294 0.118 0.704 0.02 0.04 0.118 0.722 0.04 0.234 0.098 0.488 0.098 0.488 0.04 0.214 0.136 0.722v0.02l0.136 0.704 0.058 0.274 0.098 0.43 0.118 0.528 0.04 0.176 0.136 0.704 0.04 0.078 0.136 0.606 0.078 0.352 0.078 0.352 0.136 0.586 0.04 0.098 0.156 0.704 0.04 0.136 0.136 0.546 0.098 0.372 0.098 0.312 0.156 0.606 0.02 0.058 0.164 0.66z" fill="#903B13" p-id="1861"></path><path d="M164.784 553.25c49.21 0 89.102 0.958 89.102 2.13s-39.892 2.13-89.102 2.13-89.082-0.958-89.082-2.13c-0.002-1.174 39.87-2.13 89.082-2.13zM1019.898 577.2c-0.274 2.012-0.566 4.024-0.84 6.056-39.09-0.058-70.328-1.406-70.328-3.028 0-1.64 31.686-2.988 71.168-3.028z m-94.806-36.98c47.53 0 86.054 1.622 86.054 3.634 0 2.012-38.524 3.634-86.054 3.634s-86.054-1.622-86.054-3.634c-0.002-2.014 38.522-3.634 86.054-3.634z m-239.704 27.272c78.494 0 142.122 1.094 142.122 2.422 0 1.348-63.628 2.422-142.122 2.422s-142.122-1.074-142.122-2.422c0-1.328 63.628-2.422 142.122-2.422z m-265.156 22.426c39.834 0 72.126 1.758 72.126 3.946 0 2.168-32.292 3.926-72.126 3.926s-72.106-1.758-72.106-3.926c0-2.188 32.272-3.946 72.106-3.946z m10.002-47.276c59.096 0 106.978 2.168 106.978 4.844s-47.882 4.844-106.978 4.844c-59.076 0-106.958-2.168-106.958-4.844s47.882-4.844 106.958-4.844zM166.6 578.412c77.146 0 139.7 1.894 139.7 4.24s-62.554 4.24-139.7 4.24-139.7-1.894-139.7-4.24 62.554-4.24 139.7-4.24z" fill="#B1E9F1" p-id="1862"></path></svg>