<?xml version="1.0" standalone="no"?><!DOCTYPE svg PUBLIC "-//W3C//DTD SVG 1.1//EN" "http://www.w3.org/Graphics/SVG/1.1/DTD/svg11.dtd"><svg t="1503474846829" class="icon" style="" viewBox="0 0 1024 1024" version="1.1" xmlns="http://www.w3.org/2000/svg" p-id="3519" xmlns:xlink="http://www.w3.org/1999/xlink" width="200" height="200"><defs><style type="text/css"></style></defs><path d="M8.087485 516.982323C4.977071 234.556778 228.304759 3.142015 506.997807 0.031602c278.070965-3.110413 506.375315 223.949771 508.863646 506.997397 3.110413 282.425544-220.217275 514.46239-498.910323 516.950721-278.070965 2.488331-505.753232-223.949771-508.863645-506.997397" fill="#316CB2" p-id="3520"></path><path d="M638.257256 707.96171l-83.359081-66.562848-43.545789-23.639143v23.639143h-48.52245v15.552067h-14.929985v34.836631h31.104135v68.429097H487.091161v11.197488h11.819571l-12.441654 29.85997c0 16.17415 76.516172 35.458714 88.335743 26.127473 11.819571-14.307902 93.934487 19.906646 102.021562 42.301623l13.063737-59.097856-51.632864-102.643645z" fill="#DFABA5" p-id="3521"></path><path d="M498.910732 487.122353c1.244165 2.488331 1.244165 5.598744 0.622083 8.709158-1.244165 3.110413-3.110413 4.976662-5.598744 6.220827l-55.987443 26.749556c-5.598744 2.488331-12.441654 0-14.929985-5.598745l-5.598744-11.197488c-2.488331-5.598744 0-12.441654 5.598744-14.929985l55.36536-26.127473c2.488331-1.244165 5.598744-1.244165 8.709158-0.622083 3.110413 1.244165 4.976662 3.110413 6.220827 5.598745l5.598744 11.197488z" fill="#72D0EB" p-id="3522"></path><path d="M613.373948 750.263334s25.505391 53.499112 24.883308 59.719939c-0.622083 5.598744-4.354579 20.528729-16.17415 23.017059l-21.772894-13.063736-3.110414-74.027841 16.17415 4.354579z" fill="" p-id="3523"></path><path d="M597.199798 834.244498c-1.866248 0-3.732496-0.622083-5.598744-1.244166-4.354579-1.866248-8.087075-4.976662-9.953323-8.709157L442.301207 524.447315l47.278285-22.394977L629.548099 802.51828c3.732496 8.709158 0 18.662481-8.087076 23.01706l-16.17415 7.464992c-3.110413 0.622083-5.598744 1.244165-8.087075 1.244166z" fill="#72D0EB" p-id="3524"></path><path d="M498.910732 525.69148s-37.947044 15.552067-19.906646 38.569127c18.040398 23.01706 39.19121 38.569127 43.545789 57.853691 4.354579 19.284564 13.685819 86.469495 55.987442 113.841134 42.301623 26.749556 46.03412 9.33124 46.03412 9.33124L523.171957 566.748938l-5.598744-41.67954-18.662481 0.622082z" fill="" p-id="3525"></path><path d="M637.635174 803.762446c5.598744 19.284564-14.929985 29.237887-14.929985 29.237886s37.947044 23.639142 55.36536 37.324962h16.17415c19.906646-28.615804 67.807014-123.794457 67.807014-123.794456l-18.662481-14.307903-86.469495-44.167871-9.33124-41.679541c-0.622083-3.110413-2.488331-6.220827-4.976662-8.709157l-64.074518-60.342022-54.121194-52.254946c-24.883308-24.883308-66.562849 8.709158-31.104135 41.67954 17.418315 16.17415 44.789954 46.656202 54.121195 64.696601 9.33124 18.040398 2.488331 54.743277 23.017059 77.138254 19.906646 22.394977 37.947044 31.726218 37.947045 31.726218 13.063737 27.371639 27.371639 57.231608 29.237887 63.452435z" fill="#DFABA5" p-id="3526"></path><path d="M521.927792 533.156473c-2.488331-2.488331-5.598744-3.732496-9.33124-3.110414-3.732496 0-8.709158 1.866248-13.063737 6.220827-4.354579 4.354579-6.84291 14.307902 3.732496 24.883308 1.244165 1.244165 2.488331 2.488331 4.354579 3.732496l24.261225-21.772894-9.953323-9.953323z" fill="#FDE2DB" p-id="3527"></path><path d="M367.029201 186.656411c-89.579908 3.732496-159.25317 79.004502-155.520674 168.58441 3.732496 89.579908 79.004502 159.25317 168.58441 155.520675s159.25317-79.004502 155.520674-168.584411c-3.732496-89.579908-79.004502-159.25317-168.58441-155.520674z m11.197488 290.512619c-70.917427 3.110413-130.637366-52.877029-133.74778-123.794457-2.488331-70.917427 52.254946-130.637366 123.794457-133.747779 70.917427-2.488331 130.637366 52.877029 133.74778 123.794456 2.488331 70.917427-52.877029 131.259449-123.794457 133.74778z" fill="#72D0EB" p-id="3528"></path><path d="M738.41257 709.827958l-54.121194 160.497336h42.301623l46.656202-151.788178z" fill="#F8F8F8" p-id="3529"></path><path d="M766.406292 695.520056L673.71597 897.07485l88.335743 59.719939c85.847412-47.900368 156.142757-134.991945 162.985666-151.166095l-158.631087-110.108638z" fill="#EA7570" p-id="3530"></path><path d="M770.760871 777.634972m-20.528729 0a20.528729 20.528729 0 1 0 41.057458 0 20.528729 20.528729 0 1 0-41.057458 0Z" fill="#F8F8F8" p-id="3531"></path><path d="M567.339829 768.303732c4.354579 11.819571-1.866248 25.505391-14.307902 29.859969l-43.545789 13.68582c-11.819571 4.354579-21.772894-1.866248-26.127473-13.68582-4.354579-11.819571 1.866248-25.505391 14.307902-29.859969l40.435375-14.307902c11.819571-4.354579 24.883308 1.866248 29.237887 14.307902z" fill="#C3733D" p-id="3532"></path><path d="M558.630671 764.571236c4.354579 11.819571-1.866248 25.505391-14.307902 29.859969l-40.435375 14.307902c-11.819571 4.354579-25.505391-1.866248-29.85997-14.307902-4.354579-11.819571 1.866248-25.505391 14.307902-29.859969l40.435376-14.307902c12.441654-3.732496 26.127473 2.488331 29.859969 14.307902z" fill="#DFABA5" p-id="3533"></path><path d="M529.392784 750.263334l-40.435375 14.307902c-7.464992 2.488331-13.063737 8.709158-14.929985 16.17415L549.299431 752.751664c-5.598744-3.732496-13.063737-4.976662-19.906647-2.48833z" fill="#C3733D" p-id="3534"></path><path d="M560.496919 717.292951c4.354579 12.441654-1.866248 25.505391-14.307902 29.859969L478.382003 771.414145c-11.819571 4.354579-25.505391-1.866248-29.859969-14.307902-4.354579-11.819571 1.866248-25.505391 14.307902-29.859969L530.63695 702.985049c11.819571-4.354579 25.505391 1.866248 29.859969 14.307902z" fill="#DFABA5" p-id="3535"></path><path d="M530.63695 702.985049l-67.184931 24.261225c-8.709158 3.110413-14.307902 10.575406-15.552068 18.662481l105.754059-38.569127c-6.220827-5.598744-14.929985-7.464992-23.01706-4.354579z" fill="#C3733D" p-id="3536"></path><path d="M549.921513 673.747162c4.354579 12.441654-1.866248 25.505391-14.307902 29.859969L462.207853 730.97877c-11.819571 4.354579-25.505391-1.866248-29.859969-14.307902-4.354579-11.819571 1.866248-25.505391 14.307902-29.859969l74.027841-27.371639c11.819571-3.732496 25.505391 2.488331 29.237886 14.307902z" fill="#DFABA5" p-id="3537"></path><path d="M520.683627 660.061343l-74.027841 27.371638c-8.087075 3.110413-13.685819 9.953323-14.929985 18.040399l109.486555-42.923707c-6.220827-4.354579-13.685819-4.976662-20.528729-2.48833z" fill="#C3733D" p-id="3538"></path><path d="M509.486138 642.643027c4.354579 12.441654-1.866248 25.505391-14.307902 29.85997l-47.278285 16.17415c-11.819571 4.354579-25.505391-1.866248-29.859969-14.307902-4.354579-11.819571 1.866248-25.505391 14.307902-29.85997l47.278285-16.17415c11.819571-4.354579 25.505391 1.866248 29.859969 14.307902z" fill="#DFABA5" p-id="3539"></path><path d="M542.456521 676.857576c-2.488331-7.464992-11.197489-11.819571-18.662481-9.331241l-11.197488 3.732496 9.953323 27.993722 10.575406-3.732497c8.087075-2.488331 11.819571-11.197489 9.33124-18.66248zM549.921513 719.781282c-2.488331-7.464992-11.197489-11.819571-18.662481-9.331241l-11.197488 3.732496 9.953323 27.993722 10.575406-3.732497c8.087075-2.488331 12.441654-11.197489 9.33124-18.66248zM549.921513 767.681649c-2.488331-7.464992-11.197489-11.819571-18.662481-9.33124l-11.197488 3.732496L530.63695 790.076626l10.575406-3.732496c7.464992-2.488331 11.819571-11.197489 8.709157-18.662481zM503.265311 644.509275c-2.488331-7.464992-11.197489-11.819571-18.662481-9.33124l-11.197488 3.732496 9.953323 27.993721 10.575406-3.732496c8.087075-2.488331 11.819571-11.197489 9.33124-18.662481z" fill="#FFFFFF" p-id="3540"></path><path d="M472.161176 344.665416c-1.866248-54.743277-47.900368-97.044901-102.643645-95.178653-54.743277 1.866248-97.044901 47.900368-95.178652 102.643645v1.244165c15.552067-59.097856 160.497336-87.71366 197.822297 0v-8.709157z" fill="#FFFFFF" p-id="3541"></path></svg>