<?xml version="1.0" standalone="no"?><!DOCTYPE svg PUBLIC "-//W3C//DTD SVG 1.1//EN" "http://www.w3.org/Graphics/SVG/1.1/DTD/svg11.dtd"><svg t="1503474811374" class="icon" style="" viewBox="0 0 1024 1024" version="1.1" xmlns="http://www.w3.org/2000/svg" p-id="2929" xmlns:xlink="http://www.w3.org/1999/xlink" width="200" height="200"><defs><style type="text/css"></style></defs><path d="M1015.851339 507.434836a511.937438 503.850941 89.488 1 0-1007.661648 9.00479 511.937438 503.850941 89.488 1 0 1007.661648-9.00479Z" fill="#83BFD9" p-id="2930"></path><path d="M827.775372 688.112808c0 3.73208-3.110067 6.842147-6.842147 6.842146l-547.993734 4.976107c-3.73208 0-6.842147-3.110067-6.842146-6.842147l-3.73208-408.040737c0-3.73208 3.110067-6.842147 6.842147-6.842146l547.993733-4.976107c3.73208 0 6.842147 3.110067 6.842147 6.842147l3.73208 408.040737z" fill="#FFFFFF" p-id="2931"></path><path d="M803.205846 294.191773l3.626337 380.672151-520.003134 4.945006-3.620118-380.672151z" fill="#237AC2" p-id="2932"></path><path d="M588.300244 675.672542l-149.283196-155.50333L292.221904 678.160595z" fill="#82C7E6" p-id="2933"></path><path d="M813.469065 678.160595L618.156883 475.384253l-191.580102 206.508422z" fill="#F7F7F7" p-id="2934"></path><path d="M325.18861 402.608695c-0.622013-34.832746 27.990599-63.445358 62.823345-64.067372 34.832746 0 63.445358 27.990599 64.067372 62.823345 0.622013 34.832746-27.990599 63.445358-62.823345 64.067372-35.454759 0.622013-64.067372-27.990599-64.067372-62.823345z" fill="#FBDA6F" p-id="2935"></path><path d="M344.471023 402.608695c0-24.258519 19.282413-44.162946 43.540932-44.162946s44.162946 19.282413 44.162946 43.540932-19.282413 44.162946-43.540932 44.162946-43.540932-19.282413-44.162946-43.540932z" fill="#FBDA6F" p-id="2936"></path><path d="M368.729543 402.608695c0-11.19624 8.708186-19.904426 19.282412-19.904426 11.19624 0 19.904426 8.708186 19.904427 19.904426 0 11.19624-8.708186 19.904426-19.904427 19.904426-10.574226-0.622013-19.282413-9.3302-19.282412-19.904426z" fill="#FBFC6F" p-id="2937"></path><path d="M799.784772 688.734821c0.622013 3.73208-1.86604 7.46416-5.59812 8.086173l-554.213866 97.034078c-3.73208 0.622013-7.46416-1.86604-8.086174-5.59812L159.111054 375.862122c-0.622013-3.73208 1.86604-7.46416 5.59812-8.086173l554.213867-97.034078c3.73208-0.622013 7.46416 1.86604 8.086173 5.59812l72.775558 412.39483z" fill="#FFFFFF" p-id="2938"></path><path d="M709.07657 293.495118l67.538206 384.721458-526.241928 92.381418L182.834642 385.876536z" fill="#23A8E1" p-id="2939"></path><path d="M378.059742 584.236584l-121.91461 184.737955 148.03917-26.124559-24.880533-157.36937z" fill="#82C7E6" p-id="2940"></path><path d="M379.303769 585.48061l24.880533 157.36937 151.149236-26.124559z" fill="#DBE3DB" p-id="2941"></path><path d="M552.223472 508.972972l-159.23541 240.719154 202.776342-35.454759L554.089511 510.216999z" fill="#F7F7F7" p-id="2942"></path><path d="M554.089511 510.216999l41.674893 204.020368 187.848022-32.966706z" fill="#DBE3DB" p-id="2943"></path><path d="M306.528211 472.8962m-65.311399 0a65.311398 65.311398 0 1 0 130.622797 0 65.311398 65.311398 0 1 0-130.622797 0Z" fill="#FBDA6F" p-id="2944"></path><path d="M262.365265 480.982373c-4.354093-24.258519 11.818253-47.895026 36.698786-52.249119 24.258519-4.354093 47.895026 11.818253 52.249119 36.698786 4.354093 24.258519-11.818253 47.895026-36.698786 52.249119-24.258519 3.73208-47.895026-12.440266-52.249119-36.698786z" fill="#FBDA6F" p-id="2945"></path><path d="M307.150224 472.8962m-20.52644 0a20.52644 20.52644 0 1 0 41.05288 0 20.52644 20.52644 0 1 0-41.05288 0Z" fill="#FBFC6F" p-id="2946"></path></svg>