<?xml version="1.0" standalone="no"?><!DOCTYPE svg PUBLIC "-//W3C//DTD SVG 1.1//EN" "http://www.w3.org/Graphics/SVG/1.1/DTD/svg11.dtd"><svg t="1503474860030" class="icon" style="" viewBox="0 0 1024 1024" version="1.1" xmlns="http://www.w3.org/2000/svg" p-id="3669" xmlns:xlink="http://www.w3.org/1999/xlink" width="200" height="200"><defs><style type="text/css"></style></defs><path d="M511.377753 0.001246C228.594642 0.624116-0.621625 229.840382 0.001246 512.623493c0 37.995088 4.360092 75.367305 12.457406 110.870912 51.075364 229.216266 255.999689 400.505595 500.787711 400.505595 244.788023-0.62287 449.089478-172.53507 499.541972-401.751336 8.097314-35.503606 11.834535-72.875824 11.834535-110.870911-0.62287-282.783111-230.462007-511.999377-513.245117-511.376507" fill="#34495E" p-id="3670"></path><path d="M194.959646 785.44068a335.727085 18.063238 0 1 0 671.454171 0 335.727085 18.063238 0 1 0-671.454171 0Z" fill="#273747" p-id="3671"></path><path d="M718.793559 419.19295h-53.566845v36.126477h46.092401c9.965925 0 18.063238 8.097314 18.063239 18.063238v113.362392c0 9.965925-8.097314 18.063238-18.063239 18.063239h-46.092401v37.372217h53.566845c26.160552 0 47.338142-21.17759 47.338142-47.338142V466.531092c0-26.783422-21.17759-47.338142-47.338142-47.338142z" fill="#FAC503" p-id="3672"></path><path d="M665.849584 455.942297l9.965925-38.617958 21.17759 38.617958M665.849584 640.934773l9.965925-40.486569 21.80046 40.486569" fill="#383838" p-id="3673"></path><path d="M675.815509 303.339076c-3.114351-14.948887-11.834535-28.029163-23.669071-37.372217v-3.737222c0-22.42333-18.063238-41.109439-41.109439-41.109439-3.114351 0-5.605833 0-8.097314 0.62287v-1.24574c0-36.126477-29.274904-65.40138-65.40138-65.40138-28.652033 0-52.943975 18.063238-61.664159 43.60092-8.720184-6.228703-19.308979-10.588795-31.143514-10.588795-28.652033 0-51.698234 23.046201-51.698234 51.698234 0 10.588795 3.114351 19.931849 8.720184 28.029163-31.766385 13.080276-54.812585 44.846661-54.812586 81.596008 0 48.583883 39.240828 88.447581 88.447581 88.447581 21.17759 0 39.863698-7.474443 55.435456-19.308979h93.430543v-41.73231c4.360092 1.868611 8.720184 3.737222 13.703147 4.360092V429.781745h79.727397V303.339076h-1.868611z" fill="#F5F5F5" p-id="3674"></path><path d="M676.438379 749.314203c0 16.817498-13.703146 29.897774-29.897774 29.897774H377.460641c-16.817498 0-29.897774-13.703146-29.897774-29.897774V373.100549h328.875512v376.213654z" fill="#FAC503" p-id="3675"></path><path d="M500.166087 373.100549h-105.887949v136.408593c0 10.588795 8.720184 19.308979 19.308979 19.308979h10.588795c10.588795 0 19.308979-8.720184 19.308979-19.308979V399.261101c0-7.474443 6.228703-13.703146 13.703146-13.703147h4.360093c7.474443 0 13.703146 6.228703 13.703146 13.703147v56.058326c0 6.228703 4.982962 11.834535 11.834535 11.834535h6.228703c6.228703 0 11.834535-4.982962 11.834536-11.834535V373.100549h-4.982963z" fill="#F5F5F5" p-id="3676"></path><path d="M620.380053 398.63823h28.029163v351.921713h-28.029163z" fill="#F5F5F5" p-id="3677"></path><path d="M394.901009 649.032086m-16.817498 0a16.817498 16.817498 0 1 0 33.634995 0 16.817498 16.817498 0 1 0-33.634995 0Z" fill="#F5F5F5" p-id="3678"></path><path d="M558.715895 392.409527m-16.817498 0a16.817498 16.817498 0 1 0 33.634995 0 16.817498 16.817498 0 1 0-33.634995 0Z" fill="#F5F5F5" p-id="3679"></path><path d="M459.056648 559.961635m-9.965924 0a9.965925 9.965925 0 1 0 19.931849 0 9.965925 9.965925 0 1 0-19.931849 0Z" fill="#F5F5F5" p-id="3680"></path><path d="M578.024873 577.402003m-9.965924 0a9.965925 9.965925 0 1 0 19.931849 0 9.965925 9.965925 0 1 0-19.931849 0Z" fill="#F5F5F5" p-id="3681"></path><path d="M368.117586 436.633318m-9.965924 0a9.965925 9.965925 0 1 0 19.931849 0 9.965925 9.965925 0 1 0-19.931849 0Z" fill="#F5F5F5" p-id="3682"></path><path d="M586.745057 496.428866m-14.326016 0a14.326017 14.326017 0 1 0 28.652033 0 14.326017 14.326017 0 1 0-28.652033 0Z" fill="#F5F5F5" p-id="3683"></path><path d="M500.166087 684.535693m-14.326016 0a14.326017 14.326017 0 1 0 28.652033 0 14.326017 14.326017 0 1 0-28.652033 0Z" fill="#F5F5F5" p-id="3684"></path><path d="M571.1733 715.679207m-14.326016 0a14.326017 14.326017 0 1 0 28.652033 0 14.326017 14.326017 0 1 0-28.652033 0Z" fill="#F5F5F5" p-id="3685"></path></svg>