<?xml version="1.0" standalone="no"?><!DOCTYPE svg PUBLIC "-//W3C//DTD SVG 1.1//EN" "http://www.w3.org/Graphics/SVG/1.1/DTD/svg11.dtd"><svg t="1503474818631" class="icon" style="" viewBox="0 0 1024 1024" version="1.1" xmlns="http://www.w3.org/2000/svg" p-id="3074" xmlns:xlink="http://www.w3.org/1999/xlink" width="200" height="200"><defs><style type="text/css"></style></defs><path d="M8.087485 512a512 503.912515 90 1 0 1007.82503 0 512 503.912515 90 1 0-1007.82503 0Z" fill="#0F7895" p-id="3075"></path><path d="M78.386391 544.349939c95.183475 105.759417 214.629405 207.164034 368.913731 329.720535l432.991494-147.441069-555.547995-164.860268-246.35723-17.419198z" fill="" p-id="3076"></path><path d="M89.584447 556.792224l429.258809-92.072904c319.144593 131.888214 356.471446 186.634265 365.80316 240.758201l-412.461726 125.667072c-11.82017-103.893074-283.061968-180.413123-382.600243-274.352369z" fill="#FFFFFF" p-id="3077"></path><path d="M166.104496 549.326853l461.608748-37.326853c-54.123937-26.128797-29.239368-12.442284-107.003645-47.28068 0-0.622114-354.605103 67.81045-354.605103 84.607533z" fill="#C4C4C4" p-id="3078"></path><path d="M506.400972 469.074119L116.335358 564.257594l-9.331713-161.749696 385.710814-90.206561c60.345079 7.465371 99.538275 120.690158 13.686513 156.772782z" fill="#FAFAFA" p-id="3079"></path><path d="M62.211422 531.907655c11.82017 19.285541 30.483597 32.349939 51.013365 32.349939 29.861482 0 54.746051-25.506683 62.211422-60.345079L62.211422 531.907655zM177.302552 483.382746c0-44.792224-28.617254-80.874848-64.077765-80.874848-35.46051 0-64.077764 36.082625-64.077764 80.874848 0 18.041312 4.976914 34.838396 13.064399 48.524909L175.436209 503.912515c1.244228-6.221142 1.866343-13.064399 1.866343-20.529769z" fill="#C2C2C2" p-id="3080"></path><path d="M107.003645 402.507898c-41.059538 42.303767-18.041312 149.307412 41.681653 151.173754l54.746051-60.345078S170.459295 404.374241 146.196841 404.996355c-28.617254-4.3548-33.594168-4.3548-39.193196-2.488457z" fill="#9C9C9C" p-id="3081"></path><path d="M526.308627 511.377886l-1.244228 1.866342-16.797084 42.303767 9.331713 7.465371 28.617254-34.838396z" fill="#FECC99" p-id="3082"></path><path d="M546.216282 528.17497l-28.617254 34.838396 5.599028 4.976913 39.193196-23.64034 1.244228-1.866342z" fill="#C9B88F" p-id="3083"></path><path d="M508.267315 555.547995l-10.575942 27.99514 18.041312-21.773998z" fill="#41447F" p-id="3084"></path><path d="M515.732685 561.769137l-18.041312 21.773998 25.506683-15.552856z" fill="#010047" p-id="3085"></path><path d="M775.154313 227.693803c-4.3548-3.732685-10.575942-3.110571-13.686512 1.244229l-18.663427 22.396111 20.529769 16.797084 24.884569-29.861482-13.064399-10.575942z" fill="#CC6154" p-id="3086"></path><path d="M798.794654 260.043742c3.110571-4.3548 3.110571-9.953827-1.244229-13.686512l-9.953827-8.709599-24.884569 29.861482 17.419198 14.308627 18.663427-21.773998z" fill="#FB7A70" p-id="3087"></path><path d="M742.536865 292.729623l17.220122 14.32107-196.102844 235.824836-17.220121-14.32107z" fill="#C44E2F" p-id="3088"></path><path d="M526.165541 511.533414l195.984641-235.918153 20.573317 17.095699-195.984641 235.911932z" fill="#E35D4F" p-id="3089"></path><path d="M722.249721 275.565492l20.274702-24.405541 20.579538 17.089478-20.274702 24.405541z" fill="#FFFFFF" p-id="3090"></path><path d="M762.276549 268.050352l17.232564 14.308627-20.280923 24.405541-17.220122-14.308627z" fill="#FFFFFF" p-id="3091"></path><path d="M528.797084 567.990279c95.183475-16.797084 176.058323-15.552855 243.868773 14.308627l-94.561361-46.658566c-28.617254-0.622114-91.45079 16.17497-149.307412 32.349939z" fill="#C4C4C4" p-id="3092"></path></svg>