<?xml version="1.0" standalone="no"?><!DOCTYPE svg PUBLIC "-//W3C//DTD SVG 1.1//EN" "http://www.w3.org/Graphics/SVG/1.1/DTD/svg11.dtd"><svg t="1503497536574" class="icon" style="" viewBox="0 0 1024 1024" version="1.1" xmlns="http://www.w3.org/2000/svg" p-id="3415" xmlns:xlink="http://www.w3.org/1999/xlink" width="200" height="200"><defs><style type="text/css"></style></defs><path d="M680.9312744140625 370.72955322265625L450.201904296875 601.4589233398438l-107.10845947265626-107.13317871093749c-9.41802978515625-9.41802978515625-24.71923828125-9.41802978515625-34.13726806640625 0-9.41802978515625 9.41802978515625-9.41802978515625 24.71923828125 0 34.13726806640625l121.24786376953125 121.24786376953125c0.81573486328125 1.16180419921875 1.3101196289062498 2.49664306640625 2.34832763671875 3.5348510742187496 4.86968994140625 4.86968994140625 11.27197265625 7.119140625 17.649536132812496 6.946105957031251 6.377563476562501 0.14831542968749997 12.804565429687502-2.076416015625 17.67425537109375-6.946105957031251 1.0382080078125-1.0382080078125 1.5325927734375-2.3730468749999996 2.34832763671875-3.5348510742187496l244.84405517578125-244.84405517578125c9.41802978515625-9.41802978515625 9.41802978515625-24.71923828125 0-34.13726806640625C705.6257934570312 361.3115234375 690.3493041992188 361.3115234375 680.9312744140625 370.72955322265625ZM512 116.4921875C293.55609130859375 116.4921875 116.4921875 293.55609130859375 116.4921875 512c0 218.44390869140625 177.06390380859378 395.5078125 395.5078125 395.5078125 218.419189453125 0 395.5078125-177.06390380859378 395.5078125-395.5078125C907.5078125 293.55609130859375 730.4439086914062 116.4921875 512 116.4921875ZM512 858.0693359375C320.870849609375 858.0693359375 165.9306640625 703.1291503906251 165.9306640625 512 165.9306640625 320.870849609375 320.870849609375 165.9306640625 512 165.9306640625c191.129150390625 0 346.0693359375 154.940185546875 346.0693359375 346.0693359375C858.0693359375 703.1291503906251 703.1291503906251 858.0693359375 512 858.0693359375Z" fill="#C5E6A3" p-id="3416"></path></svg>