<?xml version="1.0" standalone="no"?><!DOCTYPE svg PUBLIC "-//W3C//DTD SVG 1.1//EN" "http://www.w3.org/Graphics/SVG/1.1/DTD/svg11.dtd"><svg t="1503043622307" class="icon" style="" viewBox="0 0 1024 1024" version="1.1" xmlns="http://www.w3.org/2000/svg" p-id="7613" xmlns:xlink="http://www.w3.org/1999/xlink" width="32" height="32"><defs><style type="text/css"></style></defs><path d="M512.054123 0.008327C229.534038 0.008327 0.47045 229.071914 0.47045 511.591999c0 173.987575 86.895951 327.670841 219.629599 420.095625 0.562043-1.960904 1.190698-3.880176 1.79021-5.811937 0.378858-1.215677 0.732737-2.443845 1.124085-3.651195 1.336412-4.134136 2.743601-8.226638 4.250707-12.256692 0.079102-0.21649 0.174858-0.428818 0.25396-0.641145 1.432168-3.805237 2.947601-7.560514 4.529647-11.278322 0.487104-1.140738 0.999187-2.264824 1.498781-3.397235a275.130265 275.130265 0 0 1 10.025174-20.462514c0.50792-0.936738 0.995024-1.881802 1.511271-2.810214a275.750594 275.750594 0 0 1 13.310001-21.532476c0.636982-0.932574 1.298943-1.844332 1.944251-2.768581a291.354562 291.354562 0 0 1 7.785331-10.558074 266.324931 266.324931 0 0 1 5.857733-7.277411c0.695268-0.832656 1.373882-1.681965 2.077476-2.510457a266.866157 266.866157 0 0 1 8.3557-9.392357l0.174858-0.179021a271.2376 271.2376 0 0 1 8.472272-8.622149c0.924248-0.907595 1.873475-1.786047 2.810213-2.676989a279.214441 279.214441 0 0 1 9.667133-8.767864c0.27894-0.24147 0.549553-0.491267 0.832656-0.732737v0.037469c24.259424-20.795577 52.353228-37.586079 83.557001-49.734526 2.052496-0.795186 4.109156-1.586209 6.186632-2.343926 2.03168-0.741064 4.07585-1.465474 6.132509-2.169068 2.081639-0.707757 4.188258-1.386372 6.294877-2.056659 2.048333-0.653635 4.08834-1.311433 6.161653-1.927598 1.935925-0.574532 3.900992-1.099106 5.857733-1.636169l1.806862-0.49543c2.997561-0.803513 6.011774-1.573719 9.055131-2.302293 2.660335-0.632818 5.324833-1.2698 8.018475-1.844332 2.0067-0.428818 4.034217-0.807676 6.061733-1.199025a325.693283 325.693283 0 0 1 13.480697-2.343925 331.892405 331.892405 0 0 1 8.268271-1.153229c1.773557-0.22898 3.534624-0.47045 5.32067-0.674451a367.567539 367.567539 0 0 1 13.776289-1.315596h51.691267c4.625403 0.345552 9.205009 0.799349 13.755472 1.315596 1.798536 0.204001 3.572093 0.449634 5.358139 0.678615 2.747764 0.353879 5.478875 0.728574 8.197496 1.140738 2.048333 0.312246 4.084176 0.645308 6.115856 0.99086 2.448008 0.424654 4.879362 0.874289 7.302391 1.344739 2.064986 0.399675 4.134136 0.78686 6.182469 1.228167 2.577069 0.549553 5.116669 1.157391 7.664595 1.765231 3.293153 0.782696 6.553 1.615352 9.796195 2.493803 2.389722 0.649471 4.78777 1.290616 7.156676 1.990048 2.144088 0.632818 4.254871 1.319759 6.373979 1.99421 2.023353 0.645308 4.042544 1.298943 6.040918 1.977557 2.123272 0.728574 4.229891 1.473801 6.328183 2.235681 1.990047 0.728574 3.955115 1.482127 5.920182 2.24817 30.64173 11.91114 58.2859 28.322784 82.249732 48.597951v-0.104082c0.828492 0.699431 1.627842 1.440494 2.448008 2.152415a296.8376 296.8376 0 0 1 9.89195 8.992682c0.7369 0.703594 1.477964 1.394698 2.206537 2.102456a273.977037 273.977037 0 0 1 17.448301 18.684794c0.399675 0.462124 0.782696 0.945064 1.174044 1.415515 2.356416 2.814376 4.662872 5.674549 6.906879 8.588843 0.503757 0.645308 0.999187 1.303106 1.494617 1.952578a279.03542 279.03542 0 0 1 6.61545 9.113417c0.287266 0.416328 0.587022 0.824329 0.874289 1.240657a276.828883 276.828883 0 0 1 13.976126 22.627419l0.345552 0.641145a272.611482 272.611482 0 0 1 6.498878 12.593918c1.773557 3.651195 3.476338 7.348187 5.100016 11.090974l0.416328 0.945064a288.398634 288.398634 0 0 1 9.617173 25.737388c0.095755 0.29143 0.183184 0.595349 0.274777 0.890942 0.811839 2.568743 1.640332 5.133322 2.385558 7.743698-0.033306 0.020816-0.066612 0.041633-0.091592 0.066612 132.716995-92.424785 219.596292-246.09556 219.596292-420.070645C1023.637795 229.067751 794.57837 0.008327 512.054123 0.008327z m252.194763 642.926784c-21.470028 0-41.266417-6.503041-57.165978-17.444137-43.776874 60.321743-114.79408 99.585624-195.028785 99.585624-80.226378 0-151.243584-39.259717-195.016296-99.573134-15.841275 10.799545-35.508603 17.198504-56.820426 17.198504-52.399024 0-94.881119-38.676858-94.881119-86.383867 0-47.711173 42.482095-86.388031 94.881119-86.388031 3.855196 0 7.647943 0.233144 11.382404 0.641145 0.308083-5.54965 0.853472-11.036852 1.532086-16.48242 0.137388-1.182371 0.295593-2.352252 0.449634-3.53046 0.24147-1.736087 0.491267-3.468011 0.770207-5.195772 6.652919-43.310587 25.112896-82.208099 51.553879-114.003057C370.08216 277.624069 437.060986 243.343633 512.049959 243.343633c97.653862-6.652919 236.569979 81.017401 241.341096 227.398276a104.798048 104.798048 0 0 1 10.853668-0.578695c52.399024 0 94.876956 38.676858 94.876955 86.38803 0.004163 47.707009-42.473768 86.383867-94.872792 86.383867z" fill="#C3E6F9" p-id="7614"></path><path d="M271.191804 484.210115c0-4.579606 0.158205-9.121743 0.408001-13.6389a104.743926 104.743926 0 0 0-11.382404-0.641145c-52.399024 0-94.881119 38.676858-94.881119 86.388031 0 47.707009 42.482095 86.383867 94.881119 86.383867 21.311823 0 40.979151-6.398959 56.820426-17.198504a239.704928 239.704928 0 0 1-45.846023-141.293349z" fill="#A79CCB" p-id="7615"></path><path d="M764.248886 470.167377c-3.676175 0-7.294064 0.208164-10.853667 0.578696-4.771117-146.380875-143.687234-234.051195-241.341096-227.398277l-0.104082 0.237307c-71.995577-0.49543-140.664693 33.2188-186.040267 87.774403-26.445146 31.794959-44.90096 70.69247-51.553879 114.003057-0.262287 1.727761-0.541226 3.451358-0.770206 5.195772-0.154041 1.174045-0.312246 2.348089-0.449634 3.53046a237.989657 237.989657 0 0 0-1.353066 37.319629c63.602407 38.347959 131.930135 8.026801 200.844885-105.364254 49.42228 87.541259 216.124118 145.044463 280.10122 105.801398a239.596682 239.596682 0 0 1-45.646186 133.645406c15.899561 10.945259 35.695951 17.444137 57.165978 17.444137 52.399024 0 94.876956-38.676858 94.876956-86.383867s-42.477931-86.383867-94.876956-86.383867z" fill="#A79CCB" p-id="7616"></path><path d="M273.581525 450.558335c0.22898-1.74025 0.50792-3.468011 0.770207-5.195772-0.274776 1.727761-0.528736 3.459685-0.770207 5.195772zM511.950041 243.585103l0.104082-0.237307c-74.993137 0-141.971963 34.276273-186.144349 88.015873 45.375573-54.555603 114.04469-88.273996 186.040267-87.778566zM472.627874 386.04417c-68.91475 113.391055-137.242478 143.716377-200.844885 105.364254a237.973004 237.973004 0 0 1 1.353066-37.319629 241.095463 241.095463 0 0 0-1.940088 30.12132 239.717417 239.717417 0 0 0 45.846024 141.293349c43.772711 60.313417 114.79408 99.573134 195.016295 99.573134 80.230542 0 151.251911-39.26388 195.028785-99.585624a239.588356 239.588356 0 0 0 45.646186-133.645406c-63.981265 39.243064-230.683103-18.26014-280.105383-105.801398z" fill="#FCE9EA" p-id="7617"></path><path d="M408.530037 740.085217c2.048333-0.653635 4.08834-1.311433 6.161653-1.927598-2.069149 0.616165-4.109156 1.273963-6.161653 1.927598zM609.541454 738.140966c2.144088 0.632818 4.254871 1.319759 6.373979 1.99421-2.114946-0.674451-4.229891-1.361392-6.373979-1.99421zM621.960514 742.112734zM791.443422 896.283103l0.416328 0.945064-0.416328-0.945064zM293.053179 808.53368c0.924248-0.907595 1.873475-1.786047 2.810213-2.676988-0.936738 0.890942-1.885965 1.769393-2.810213 2.676988zM273.972874 829.237665c0.695268-0.832656 1.373882-1.681965 2.077476-2.510457-0.703594 0.824329-1.382208 1.673638-2.077476 2.510457zM284.40605 817.334851l0.174857-0.179021-0.174857 0.179021zM718.902456 797.238705zM302.183249 800.028102zM396.102651 744.310945zM265.779541 839.575085zM716.454448 795.194536c-23.963832-20.275167-51.608001-36.686811-82.249732-48.597951 0.78686 0.303919 1.569556 0.616165 2.352253 0.928411v133.916019h-251.128964V748.432591c1.48629-0.607839 2.989234-1.186534 4.488014-1.773557-31.203773 12.148447-59.297577 28.938949-83.557001 49.734526v183.700504c62.952935 27.677476 132.521321 43.081607 205.695105 43.081607 81.400423 0 158.337811-19.047 226.661375-52.873638a509.002439 509.002439 0 0 1-22.265213 10.287461v-185.394958zM728.794406 806.231387c0.7369 0.703594 1.477964 1.394698 2.206537 2.102456-0.728574-0.707757-1.473801-1.398862-2.206537-2.102456zM801.47276 922.961392c0.095755 0.29143 0.183184 0.595349 0.274776 0.890942-0.091592-0.295593-0.179021-0.595349-0.274776-0.890942zM785.548219 883.55596zM779.494812 871.957066l0.345552 0.641145c-0.116572-0.208164-0.224817-0.428818-0.345552-0.641145zM748.449244 827.018637c0.399675 0.462124 0.782696 0.945064 1.174044 1.415515-0.391348-0.47045-0.77437-0.949228-1.174044-1.415515zM756.534331 837.027159c0.503757 0.645308 0.999187 1.303106 1.494617 1.952578-0.49543-0.653635-0.99086-1.307269-1.494617-1.952578zM764.644397 848.093153c0.287266 0.416328 0.587022 0.824329 0.874289 1.240657-0.287266-0.416328-0.587022-0.828492-0.874289-1.240657zM738.923662 970.197951l0 0zM265.787868 960.068694zM234.7423 941.533778zM249.642674 950.792909zM227.260888 909.963636c0.079102-0.21649 0.174858-0.428818 0.25396-0.641145-0.079102 0.21649-0.174858 0.424654-0.25396 0.641145zM221.890259 925.871524c0.378858-1.215677 0.732737-2.443845 1.124085-3.651195-0.391348 1.211514-0.745227 2.435518-1.124085 3.651195zM282.016328 968.620068zM258.389722 849.84173c0.636982-0.932574 1.298943-1.844332 1.944251-2.76858-0.649471 0.920085-1.307269 1.836006-1.944251 2.76858zM299.414669 976.996585zM237.406798 886.237112zM243.56845 874.180257c0.50792-0.936738 0.995024-1.881802 1.51127-2.810213-0.516247 0.928411-1.007513 1.877639-1.51127 2.810213zM232.048658 898.04417c0.487104-1.140738 0.999187-2.264824 1.498781-3.397236-0.499593 1.132412-1.011677 2.252334-1.498781 3.397236z" fill="#758FC8" p-id="7618"></path><path d="M385.428005 881.441015h251.128964v-133.916019l-2.352253-0.928411a304.531338 304.531338 0 0 0-5.920182-2.248171 315.601496 315.601496 0 0 0-6.328183-2.23568c-1.998374-0.678614-4.017564-1.328086-6.040918-1.977558-2.119109-0.674451-4.234054-1.361392-6.373979-1.99421-2.364742-0.699431-4.766954-1.336412-7.156676-1.990047l-1.336412-0.366369c-5.924345 18.339242-23.659912 31.65757-44.62202 31.657571-22.619093 0-41.478745-15.504049-45.800228-36.095626-4.363116 20.53329-23.201952 35.979054-45.779411 35.979054-20.629045 0-38.102326-12.91449-44.301448-30.795772-1.956741 0.537063-3.917645 1.061636-5.857733 1.636169-2.073313 0.612002-4.113319 1.273963-6.161652 1.927598-2.106619 0.670288-4.213238 1.348902-6.294877 2.056659-2.05666 0.703594-4.100829 1.428005-6.132509 2.169068-2.077476 0.76188-4.134136 1.54874-6.186632 2.343926-1.49878 0.587022-3.001724 1.165718-4.488015 1.773557v133.004261zM306.359018 796.35609l-0.832656 0.732737a281.454285 281.454285 0 0 0-9.667133 8.767865c-0.936738 0.890942-1.885965 1.769393-2.810213 2.676988a280.425955 280.425955 0 0 0-8.472272 8.62215l-0.174858 0.179021a266.866157 266.866157 0 0 0-8.3557 9.392357c-0.703594 0.824329-1.382208 1.673638-2.077476 2.510457a274.468304 274.468304 0 0 0-8.197495 10.33742 284.276988 284.276988 0 0 0-5.445569 7.498065c-0.645308 0.924248-1.307269 1.836006-1.944251 2.76858a275.750594 275.750594 0 0 0-13.310001 21.532477c-0.516247 0.928411-1.007513 1.873475-1.51127 2.810213a290.859132 290.859132 0 0 0-6.161653 12.052692c-1.332249 2.772744-2.614539 5.578793-3.863522 8.409822-0.499593 1.132412-1.011677 2.256497-1.498781 3.397236-1.582046 3.717808-3.101643 7.473085-4.529647 11.278321-0.083266 0.21649-0.174858 0.428818-0.25396 0.641145a295.168125 295.168125 0 0 0-4.250707 12.256693c-0.391348 1.207351-0.745227 2.435518-1.124085 3.651195-0.599512 1.935925-1.228167 3.855196-1.79021 5.811937l1.315596 0.911758c4.392259 3.043357 8.834477 6.024264 13.326655 8.934396 0.466287 0.299756 0.920085 0.612002 1.386371 0.911758 4.450545 2.864336 8.967702 5.624589 13.509839 8.347373a526.496536 526.496536 0 0 0 16.145195 9.275785 538.066287 538.066287 0 0 0 22.523337 11.68216c3.676175 1.79021 7.37733 3.538787 11.103464 5.245731 2.302293 1.053309 4.621239 2.077476 6.944349 3.097479v-183.733811zM804.133095 931.596032c-0.74939-2.610376-1.573719-5.174955-2.385559-7.743698-0.091592-0.295593-0.179021-0.599512-0.274776-0.890942a287.599284 287.599284 0 0 0-9.617174-25.737388l-0.416328-0.945064a284.797398 284.797398 0 0 0-5.100016-11.090974l-0.795186-1.636169a278.115336 278.115336 0 0 0-5.703692-10.957749l-0.345552-0.641145a276.828883 276.828883 0 0 0-13.976126-22.627419c-0.287266-0.416328-0.587022-0.824329-0.874289-1.240657a274.601529 274.601529 0 0 0-6.615449-9.113417c-0.49543-0.649471-0.99086-1.303106-1.494617-1.952578a264.980192 264.980192 0 0 0-6.906879-8.588843c-0.395511-0.47045-0.778533-0.953391-1.174045-1.415515a273.069442 273.069442 0 0 0-17.4483-18.684794c-0.728574-0.707757-1.473801-1.398862-2.206538-2.102456a288.023939 288.023939 0 0 0-9.89195-8.992682c-0.820166-0.711921-1.619515-1.452984-2.448008-2.152415v185.494877a509.002439 509.002439 0 0 0 22.473378-10.38738 512.691104 512.691104 0 0 0 65.11784-38.535306l0.083266-0.058286z" fill="#FEFEFE" p-id="7619"></path><path d="M464.85087 767.321386c22.57746 0 41.412132-15.445764 45.779411-35.979054 4.321483 20.591576 23.181135 36.095625 45.800228 36.095625 20.962108 0 38.697674-13.314165 44.62202-31.65757l1.336412 0.366369a333.582696 333.582696 0 0 0-9.796194-2.493804 320.834737 320.834737 0 0 0-7.664596-1.76523c-2.048333-0.437144-4.117483-0.828492-6.182469-1.228168a342.512929 342.512929 0 0 0-13.418247-2.335599c-2.714458-0.416328-5.449732-0.78686-8.197495-1.140738-1.786047-0.22898-3.559603-0.474614-5.35814-0.678615a358.708083 358.708083 0 0 0-13.755472-1.315596h-51.691267a369.249504 369.249504 0 0 0-13.776289 1.315596c-1.786047 0.204001-3.547113 0.445471-5.32067 0.674452a352.663002 352.663002 0 0 0-14.313352 2.127435 355.127663 355.127663 0 0 0-7.435615 1.369719c-2.023353 0.391348-4.055033 0.77437-6.061734 1.199024a374.786664 374.786664 0 0 0-17.073605 4.146625l-1.806863 0.49543c6.211612 17.893771 23.684892 30.804098 44.313937 30.804099z" fill="#758FC8" p-id="7620"></path></svg>