<?xml version="1.0" standalone="no"?><!DOCTYPE svg PUBLIC "-//W3C//DTD SVG 1.1//EN" "http://www.w3.org/Graphics/SVG/1.1/DTD/svg11.dtd"><svg t="1503043772303" class="icon" style="" viewBox="0 0 1024 1024" version="1.1" xmlns="http://www.w3.org/2000/svg" p-id="9470" xmlns:xlink="http://www.w3.org/1999/xlink" width="32" height="32"><defs><style type="text/css"></style></defs><path d="M512 512m-508 0a508 508 0 1 0 1016 0 508 508 0 1 0-1016 0Z" fill="#F3756F" p-id="9471"></path><path d="M593.2 964.4c-8 16.4-17.2 33.6-33.6 41.6-12 6-26 5.6-39.6 5.6l-53.6-1.2c-3.2 0-6.4 0-9.2-1.6-3.6-2-6-5.6-8.4-9.6-14.4-24.8-28.8-50-36-78-4-15.2-5.6-30.8-6.8-46.4-4.8-48.4-9.6-96.4-14.4-144.8 16-2 32-4.4 48-6.4 10.8-1.6 21.6-2.8 32.4-3.2 11.2-0.4 22.4 0 33.6 0.4 4.4 0 9.2 0.4 13.6 0.4 20.4 0.8 40.8 1.6 61.2 2.8 16 0.8 34 2.4 44.4 14.4 8.4 10 9.6 24.4 10 37.2 0.8 22.8 1.6 46.4-6 68-4.4 12.4-11.2 23.6-13.6 36.4-1.2 7.6-0.8 15.6-1.2 23.6-1.2 21.2-11.2 41.2-20.8 60.8z" fill="#AEB8D1" p-id="9472"></path><path d="M377.6 820v0.4l0.4-0.4z" fill="#A5B0C7" p-id="9473"></path><path d="M398.8 515.6h226.8v217.2H398.8z" fill="#D3AA6F" p-id="9474"></path><path d="M360.4 480c10 30.4 40 52.8 72 54 2.4-2 0.8-5.6-0.8-8-27.6-41.2-58-81.2-76.8-126.8 2.4 26.8-2.8 54.8 5.6 80.8zM693.6 472.4c-4 20.4-14.8 39.2-30.8 52.8-2.8 2.4-5.6 4.4-9.2 5.2-5.6 1.2-11.6-1.6-16-5.2-8.8-7.2-14.4-18-17.2-29.2-2.8-11.2-3.2-22.8-4-34.4-0.4-7.2-0.4-14.4-0.8-22-0.4-6.4-0.4-13.2 2.4-18.8 4.8-9.6 16-13.6 26.4-16.8 6.4-2 13.2-3.6 20-4.4 5.6-0.4 11.6 0.4 15.6 4 5.6 5.2 5.2 14 4.8 21.6-0.4 10.4-0.4 20.8 0.8 31.2 0.4 3.2 0.8 6.8 3.6 8.4 1.2 0.8 3.2 1.2 4 2.4 0.8 2 0.8 3.6 0.4 5.2z" fill="#312C29" p-id="9475"></path><path d="M635.272451 384.675744a30 64 10.327 1 0 59.02804 10.75595 30 64 10.327 1 0-59.02804-10.75595Z" fill="#D3AA6F" p-id="9476"></path><path d="M342.119534 392.595413a64 30 85.003 1 0 59.771955-5.226215 64 30 85.003 1 0-59.771955 5.226215Z" fill="#D3AA6F" p-id="9477"></path><path d="M368.4 391.6a229.2 143.6 90 1 0 287.2 0 229.2 143.6 90 1 0-287.2 0Z" fill="#EEC98F" p-id="9478"></path><path d="M385.2 178.4c16-6 35.2 0.8 46.4 13.6 11.6 12.8 16.8 30 18.4 47.2 1.6 17.2 0 34.4 0 51.6 0 8.4 0.4 16.8-1.2 25.2-2.8 16-12 30-21.2 43.2-6 9.2-12.8 18.8-22.8 23.6-15.6 7.6-36.4 0.4-46-14.4-8.4-13.2-9.6-29.6-10-45.2-1.2-31.6-2-63.2 4-94.4 4.4-20.4 12.8-43.2 32.4-50.4z" fill="#EEC98F" p-id="9479"></path><path d="M399.2 141.2c-1.6 2.8-2.8 5.6-5.6 6.8-2 0.8-4.4 0.8-6.8 0.8-10 0.4-19.2 6.8-25.6 14.8-13.6 16.4-19.2 38-23.2 58.8-6 30-10 60-8.4 90.4 1.6 30.4 9.2 60.8 25.2 86.4 10.8 2.4 15.6 15.6 19.2 15.6 2.8-8.4 0-47.6-3.2-72.8-0.8-5.6-1.6-11.6 0.4-16.8 2.8-8.8 12.4-14.8 14.4-24 1.2-6-1.2-12-1.2-18-0.4-10.8 6-21.2 6-32.4 0.4-12-6.4-25.6 1.6-34.4 6 22 14.8 45.6 34.4 57.6 11.6 7.2 26 9.2 39.6 10 31.2 1.6 63.6-2 92.8 8.4-6.4-14-23.6-18.4-38.8-21.2 10.4 3.2 20.8 6.8 31.6 8.8 14.8 2.8 30.4 2.8 45.2 6 14.8 2.8 30 8.8 39.6 20.8-5.6-12-16-21.6-28.4-25.6 13.2-0.8 25.6 8.8 31.2 20.8 5.6 12 5.6 26 2.8 38.8-2 9.6-4.8 19.6-2.4 29.2 2.8 10.4 12 19.2 10.4 30 6.4 0.4 12-4.4 14.8-10 3.2-5.6 4-12 6-18 2.8-8.8 6.8-16.8 10.4-25.2 12.4-32.8 8-69.2 3.6-104-3.6-27.2-7.6-56-24.8-77.2-4.4-5.6-10-10.4-15.2-15.6-20-18-40.4-35.6-64-48.4-23.6-12.4-50.8-20-77.6-16.4-10.4 1.6-20.8 4.4-30.8 8-28.8 9.6-59.2 22-73.2 48z" fill="#312C29" p-id="9480"></path><path d="M460.8 758.8l33.2 37.2h34.4l30-37.2-22.4-35.6h-43.6z" fill="#1F1E24" p-id="9481"></path><path d="M400 604.8s-19.6 34 112 119.2c0 0-55.2 48.8-72 87.2-16.8 38.8-14 29.2-14 29.2l-48.8-159.6c0.4 0-2-70 22.8-76zM624 604.8s19.6 34-112 119.2c0 0 55.2 48.8 72 87.2 16.8 38.8 14 29.2 14 29.2l48.8-159.6c-0.4 0 2-70-22.8-76z" fill="#CBD1E4" p-id="9482"></path><path d="M392 1005.6C359.6 938.4 336.4 884 336.4 884l41.2-63.2 0.4-0.8h-0.4l-50 6s-12-19.2-12-82c0-29.6 16.8-61.2 34.4-86-50.8 16.8-219.2 74.8-236.8 103.6-4 6.4-9.6 21.6-16.8 42.8 70 99.2 174.4 172 295.6 201.2zM696.4 825.6l-50.4-6 41.6 64s-22.8 54.8-55.6 122c121.2-29.2 225.6-102.4 295.2-201.2-6.8-21.2-12.8-36.4-16.8-42.8-17.6-28.8-186-86.8-236.8-103.6 17.6 24.8 34.4 56 34.4 86 0.4 62.4-11.6 81.6-11.6 81.6z" fill="#736868" p-id="9483"></path><path d="M512 1020c9.6 0 19.2-0.4 28.8-0.8 6.8-21.6 12.8-42.4 18.8-62l-30.8-161.2h-34.4l-27.2 168.8c5.2 17.2 10.8 35.2 16.4 54.4 9.2 0.4 18.8 0.8 28.4 0.8z" fill="#1F1E24" p-id="9484"></path><path d="M327.6 825.6l50-6h0.4l-0.4 0.8L336.4 884s22.8 54.8 55.6 122c29.6 7.2 60 11.6 91.2 13.6-6-18.8-11.2-37.2-16.4-54.4-30.4-101.2-48.8-174-60.4-226-24.4-110.8-16.4-127.2-16.4-127.2s-20.4 19.2-40 46.4c-17.6 24.8-34.4 56-34.4 86 0 62 12 81.2 12 81.2zM632 1005.6c32.4-67.2 55.6-122 55.6-122l-41.6-64 50.4 6s12-19.2 12-82c0-29.6-16.8-61.2-34.4-86-19.6-27.2-40-46.4-40-46.4s7.6 15.2-13.2 113.6c-10.8 51.2-29.6 125.6-61.2 232-5.6 19.6-12 40-18.8 62 31.2-1.2 61.6-6 91.2-13.2z" fill="#5C4E4E" p-id="9485"></path></svg>