<?xml version="1.0" standalone="no"?><!DOCTYPE svg PUBLIC "-//W3C//DTD SVG 1.1//EN" "http://www.w3.org/Graphics/SVG/1.1/DTD/svg11.dtd"><svg t="1503474801975" class="icon" style="" viewBox="0 0 1024 1024" version="1.1" xmlns="http://www.w3.org/2000/svg" p-id="2793" xmlns:xlink="http://www.w3.org/1999/xlink" width="200" height="200"><defs><style type="text/css"></style></defs><path d="M512 512m-512 0a512 512 0 1 0 1024 0 512 512 0 1 0-1024 0Z" fill="#DA6E6E" p-id="2794"></path><path d="M675.192214 654.63747L385.557178 365.625304 196.20438 554.978102l40.486618 39.863747 109.002433-44.846715-76.613139 77.23601L485.839416 843.990268z" fill="#FCFBFB" p-id="2795"></path><path d="M347.076204 403.228029l18.49927-18.49927 290.245451 290.24545-18.49927 18.49927z" fill="" p-id="2796"></path><path d="M394.900243 421.683698L485.839416 843.990268l189.352798-189.352798z" fill="#635151" p-id="2797"></path><path d="M692.632603 587.990268c-37.995134-37.995134-74.744526-81.596107-47.338199-117.099757 38.618005-50.452555 187.484185-96.545012 138.900243-210.530414-1.245742-2.491484-3.114355-4.360097-4.982968-4.982968-113.985401-48.583942-160.077859 100.282238-210.530414 138.900243-35.50365 27.406326-79.104623-9.343066-117.099756-47.338199-18.686131-18.686131-38.618005-24.291971-54.189782-24.291971-28.029197 0-31.143552 8.720195-62.287104 39.863747l170.666667 170.666667 170.666666 170.666666c31.143552-31.143552 39.863747-34.257908 39.863747-62.287104 0.622871-14.948905-4.360097-34.257908-23.6691-53.56691z" fill="#635151" p-id="2798"></path><path d="M724.399027 315.79562m-17.44039 0a17.440389 17.440389 0 1 0 34.880779 0 17.440389 17.440389 0 1 0-34.880779 0Z" fill="#422E2B" p-id="2799"></path><path d="M512 815.3382s14.326034-61.041363-47.961071-57.927008-57.927007-71.63017-63.532846-104.019465c-4.982968-32.389294-67.270073-67.270073-99.659368-46.715328l-32.389294 20.554745L485.839416 843.990268l26.160584-28.652068z" fill="#83BFD9" p-id="2800"></path><path d="M226.725061 532.554745l-32.389295 20.554744 40.486618 40.486618L317.664234 561.206813c-19.309002-25.537713-64.778589-45.469586-90.939173-28.652068z" fill="#54BFD9" p-id="2801"></path></svg>