<?xml version="1.0" standalone="no"?><!DOCTYPE svg PUBLIC "-//W3C//DTD SVG 1.1//EN" "http://www.w3.org/Graphics/SVG/1.1/DTD/svg11.dtd"><svg t="1503474548117" class="icon" style="" viewBox="0 0 1025 1024" version="1.1" xmlns="http://www.w3.org/2000/svg" p-id="2367" xmlns:xlink="http://www.w3.org/1999/xlink" width="200.1953125" height="200"><defs><style type="text/css"></style></defs><path d="M512 0C229.216545 0 0 229.216545 0 512c0 37.995134 4.360097 75.367397 12.457421 110.871046 50.452555 229.216545 255.377129 401.128954 500.16545 401.128954s449.090024-171.912409 500.16545-401.128954c8.097324-35.50365 12.457421-72.875912 12.457421-110.871046-1.245742-282.783455-230.462287-512-513.245742-512z" fill="#304D5C" p-id="2368"></path><path d="M501.411192 275.309002m-4.982968 0a4.982968 4.982968 0 1 0 9.965937 0 4.982968 4.982968 0 1 0-9.965937 0Z" fill="#F17272" p-id="2369"></path><path d="M787.309002 531.931873c10.588808-151.980535-104.642336-283.406326-256.622871-293.995133-62.287105-4.360097-120.836983 12.457421-169.420924 44.223844C291.50365 327.63017 242.919708 404.86618 236.690998 494.559611c-10.588808 151.980535 104.642336 283.406326 256.622871 293.995134 58.549878 3.737226 113.985401-10.588808 160.70073-38.618005 74.744526-45.469586 127.065693-124.574209 133.294403-218.004867z" fill="#21B1D5" p-id="2370"></path><path d="M574.909976 411.094891s33.012165-33.635036 33.012165-36.126521c0-1.868613-13.703163-24.291971-18.06326-37.372263-8.097324-24.914842 23.046229-42.978102 31.143552-30.520681 34.880779 2.491484 87.201946 80.350365 97.167883 130.180048-11.83455 26.160584-59.172749-14.948905-59.172749-14.948905-19.931873-2.491484-39.863747 4.360097-54.812652 18.063261-28.652068 9.965937-40.486618-21.800487-29.274939-29.274939z" fill="#AAC500" p-id="2371"></path><path d="M267.211679 642.180049l494.559611-10.588808c23.6691-49.206813 31.766423-122.705596 23.669099-148.86618-3.737226-11.83455-11.211679-17.440389-25.537713-14.326034l-492.690997 173.781022z" fill="" p-id="2372"></path><path d="M897.557178 380.574209c-8.720195-28.652068-74.121655-36.126521-168.798054-24.914842 1.245742 1.868613 3.114355 3.114355 4.360097 4.982969 278.423358 28.652068-649.03163 351.922141-495.805352 161.946472v-9.965937c-68.515815 38.618005-107.13382 75.990268-99.036497 100.90511 14.948905 49.206813 197.450122 36.749392 406.734793-27.406326 210.530414-64.155718 368.116788-156.340633 352.545013-205.547446z" fill="#F5F5F5" p-id="2373"></path><path d="M391.163017 296.486618s8.720195 53.56691 18.06326 100.905109-29.274939 104.019465-39.863747 122.082726c-10.588808 18.06326-37.372263 0.622871-73.498783-17.44039-36.126521-18.06326-63.532847-79.104623-26.783455-113.985401 36.749392-34.880779 51.075426-108.379562 122.082725-91.562044zM427.912409 774.851582s-23.6691-52.321168-0.622871-83.464721c23.046229-30.520681 94.053528-36.126521 107.756691-57.304136 13.703163-21.177616 42.978102-46.092457 46.715328 3.114355 3.737226 49.206813-8.720195 70.384428 2.491484 89.693431 11.211679 19.309002-24.914842 59.79562-24.914841 59.79562s-102.773723 6.851582-131.425791-11.834549z" fill="#AAC500" p-id="2374"></path></svg>