<?xml version="1.0" standalone="no"?><!DOCTYPE svg PUBLIC "-//W3C//DTD SVG 1.1//EN" "http://www.w3.org/Graphics/SVG/1.1/DTD/svg11.dtd"><svg t="1503474598110" class="icon" style="" viewBox="0 0 1024 1024" version="1.1" xmlns="http://www.w3.org/2000/svg" p-id="2502" xmlns:xlink="http://www.w3.org/1999/xlink" width="200" height="200"><defs><style type="text/css"></style></defs><path d="M511.377753 0.001246C228.594642 0.624116-0.621625 229.840382 0.001246 512.623493c0 37.995088 4.360092 75.367305 12.457406 110.870912 51.075364 229.216266 255.999689 400.505595 500.787711 400.505595 244.788023-0.62287 449.089478-172.53507 499.541972-401.751336 8.097314-35.503606 11.834535-72.875824 11.834535-110.870911-0.62287-282.783111-230.462007-511.999377-513.245117-511.376507" fill="#34495E" p-id="2503"></path><path d="M194.336776 834.024562a329.498383 26.160552 0 1 0 658.996765 0 329.498383 26.160552 0 1 0-658.996765 0Z" fill="" p-id="2504"></path><path d="M756.788646 734.365316l-186.861086-300.223479H480.857108l-186.861086 300.223479c-13.703146 21.80046-14.326017 49.829623-1.868611 72.252953 12.457406 22.42333 36.749347 36.749347 62.287029 36.749347h341.332918c26.160552 0 49.829623-14.326017 62.287029-36.749347 13.080276-22.42333 12.457406-49.829623-1.245741-72.252953z" fill="#FFFFFF" p-id="2505"></path><path d="M658.998011 622.871534H391.786657l-76.613045 124.574058c-9.343054 14.326017-9.343054 33.012125-1.245741 47.961012 8.097314 14.948887 24.291941 24.291941 41.732309 24.291941h341.332919c17.440368 0 33.012125-9.343054 41.732309-24.291941 8.097314-14.948887 8.097314-33.634996-1.245741-47.961012l-78.481656-124.574058z" fill="#27AE60" p-id="2506"></path><path d="M470.891184 318.910833h120.213966v163.814886H470.891184z" fill="#FFFFFF" p-id="2507"></path><path d="M528.19525 284.030097c-22.42333 0-42.97805 1.868611-59.795547 4.982963V330.122499c16.817498 3.114351 37.372217 4.982962 59.795547 4.982962 24.291941 0 46.092401-1.868611 63.53277-5.605833v-39.240828c-17.440368-4.360092-39.240828-6.228703-63.53277-6.228703z" fill="#B8B8B8" p-id="2508"></path><path d="M450.336464 304.584817a77.858786 20.55472 0 1 0 155.717572 0 77.858786 20.55472 0 1 0-155.717572 0Z" fill="#FFFFFF" p-id="2509"></path><path d="M478.365627 304.584817a49.829623 9.965925 0 1 0 99.659246 0 49.829623 9.965925 0 1 0-99.659246 0Z" fill="#B8B8B8" p-id="2510"></path><path d="M389.918046 622.871534a133.917112 18.063238 0 1 0 267.834224 0 133.917112 18.063238 0 1 0-267.834224 0Z" fill="#1D8348" p-id="2511"></path><path d="M487.708682 738.725408m-36.126477 0a36.126477 36.126477 0 1 0 72.252953 0 36.126477 36.126477 0 1 0-72.252953 0Z" fill="#2ECC71" p-id="2512"></path><path d="M586.745057 721.28504m-19.308978 0a19.308979 19.308979 0 1 0 38.617957 0 19.308979 19.308979 0 1 0-38.617957 0Z" fill="#2ECC71" p-id="2513"></path><path d="M658.375141 774.851885m-16.817498 0a16.817498 16.817498 0 1 0 33.634995 0 16.817498 16.817498 0 1 0-33.634995 0Z" fill="#2ECC71" p-id="2514"></path><path d="M458.433778 184.370851m-39.240828 0a39.240828 39.240828 0 1 0 78.481656 0 39.240828 39.240828 0 1 0-78.481656 0Z" fill="#FFFFFF" p-id="2515"></path><path d="M591.72802 200.565479m-31.766385 0a31.766385 31.766385 0 1 0 63.53277 0 31.766385 31.766385 0 1 0-63.53277 0Z" fill="#FFFFFF" p-id="2516"></path><path d="M544.389878 126.443914m-18.686109 0a18.686109 18.686109 0 1 0 37.372218 0 18.686109 18.686109 0 1 0-37.372218 0Z" fill="#FFFFFF" p-id="2517"></path><path d="M525.703769 251.017972m-12.457406 0a12.457406 12.457406 0 1 0 24.914812 0 12.457406 12.457406 0 1 0-24.914812 0Z" fill="#FFFFFF" p-id="2518"></path></svg>