<?xml version="1.0" standalone="no"?><!DOCTYPE svg PUBLIC "-//W3C//DTD SVG 1.1//EN" "http://www.w3.org/Graphics/SVG/1.1/DTD/svg11.dtd"><svg t="1503474823762" class="icon" style="" viewBox="0 0 1024 1024" version="1.1" xmlns="http://www.w3.org/2000/svg" p-id="3220" xmlns:xlink="http://www.w3.org/1999/xlink" width="200" height="200"><defs><style type="text/css"></style></defs><path d="M512 512m-512 0a512 512 0 1 0 1024 0 512 512 0 1 0-1024 0Z" fill="#77B4BE" p-id="3221"></path><path d="M177.708738 685.359223h32.310679v124.271845h-32.310679z" fill="#472E1C" p-id="3222"></path><path d="M190.135922 293.902913L266.563107 720.776699h-142.912622z" fill="#B2CE7A" p-id="3223"></path><path d="M190.135922 293.902913V720.776699h76.427185z" fill="#DBED7B" p-id="3224"></path><path d="M88.23301 798.446602C180.194175 934.524272 335.533981 1023.378641 512 1023.378641c176.466019 0 331.805825-89.475728 423.76699-224.932039H88.23301z" fill="#B5D184" p-id="3225"></path><path d="M317.514563 508.271845h553.009709v321.864077h-553.009709z" fill="#FFFFFF" p-id="3226"></path><path d="M317.514563 802.796117h553.009709v27.961165h-553.009709z" fill="#B8B8B8" p-id="3227"></path><path d="M604.582524 508.271845H869.902913v321.864077H604.582524z" fill="#F7F7F7" p-id="3228"></path><path d="M604.582524 792.23301H869.902913v37.902912H604.582524z" fill="#B8B8B8" p-id="3229"></path><path d="M548.038835 555.495146H317.514563v-47.223301h247.300971z" fill="#48453C" p-id="3230"></path><path d="M548.038835 520.07767H317.514563v-11.805825h247.300971z" fill="#EF8674" p-id="3231"></path><path d="M891.650485 508.271845H303.223301l55.300971-160.932039h451.728155z" fill="#FFFFFF" p-id="3232"></path><path d="M569.786408 255.378641h49.708738v91.961165h-49.708738z" fill="#FFFFFF" p-id="3233"></path><path d="M569.786408 344.854369v2.485437h49.708738V292.038835z" fill="#55502A" p-id="3234"></path><path d="M507.650485 475.339806H410.718447V393.941748l48.466019-57.165049 48.466019 57.165049z" fill="#ADADAD" p-id="3235"></path><path d="M548.660194 347.339806h102.524272L557.359223 510.757282H457.320388z" fill="#55502A" p-id="3236"></path><path d="M457.220971 336.55301l6.592621 6.586407-69.387184 69.449321-6.592622-6.586408z" fill="#EF8674" p-id="3237"></path><path d="M528.111845 405.965049l-6.586408 6.586407L452.100971 343.145631l6.586408-6.586408z" fill="#EF8674" p-id="3238"></path><path d="M448 397.669903h27.961165v26.718447h-27.961165zM448 432.466019h27.961165v26.718447h-27.961165z" fill="#FFFFFF" p-id="3239"></path><path d="M538.718447 530.640777l-26.718447 57.165048h359.145631v-57.165048z" fill="#59532C" p-id="3240"></path><path d="M528.15534 560.466019l205.669903-397.669902 224.310679 395.184466z" fill="#EF8674" p-id="3241"></path><path d="M734.446602 206.912621l196.349515 353.553398H554.252427z" fill="#FFFFFF" p-id="3242"></path><path d="M718.912621 405.747573h41.009709v39.76699h-41.009709zM718.912621 456.699029h41.009709v39.76699h-41.009709zM710.834951 623.84466h49.087379V689.708738h-49.087379zM710.834951 708.349515h49.087379v65.864077h-49.087379zM378.407767 648.699029h47.223301v50.951456h-47.223301zM378.407767 713.941748h47.223301v50.951456h-47.223301z" fill="#81CAD9" p-id="3243"></path><path d="M580.349515 830.135922H484.038835v-95.68932c0-25.475728 20.504854-45.980583 45.980582-45.980583h4.349515c25.475728 0 45.980583 20.504854 45.980583 45.980583v95.68932z" fill="#7A7A7A" p-id="3244"></path><path d="M534.368932 688.466019h-3.106796v141.669903h49.087379v-95.68932c0-25.475728-20.504854-45.980583-45.980583-45.980583z" fill="#5E5E5E" p-id="3245"></path><path d="M610.796117 560.466019l-172.737865 269.669903h172.116505z" fill="#55502A" p-id="3246"></path></svg>