<?xml version="1.0" standalone="no"?><!DOCTYPE svg PUBLIC "-//W3C//DTD SVG 1.1//EN" "http://www.w3.org/Graphics/SVG/1.1/DTD/svg11.dtd"><svg t="1503474785358" class="icon" style="" viewBox="0 0 1024 1024" version="1.1" xmlns="http://www.w3.org/2000/svg" p-id="2646" xmlns:xlink="http://www.w3.org/1999/xlink" width="200" height="200"><defs><style type="text/css"></style></defs><path d="M512 512m-512 0a512 512 0 1 0 1024 0 512 512 0 1 0-1024 0Z" fill="#E0E0E0" p-id="2647"></path><path d="M211.776156 832.155718a299.600973 9.965937 0 1 0 599.201946 0 299.600973 9.965937 0 1 0-599.201946 0Z" fill="" p-id="2648"></path><path d="M343.824818 709.450122l-1.868614 2.491484-27.406326 71.007299 14.948905 12.457421 48.583942-57.927007z" fill="#CFBCB5" p-id="2649"></path><path d="M378.082725 737.479319l-48.583942 57.927007 9.965937 8.097324 64.778589-39.240876 2.491484-2.491484z" fill="#958696" p-id="2650"></path><path d="M314.549878 782.948905l-18.06326 46.092458 29.89781-36.126521z" fill="#41447F" p-id="2651"></path><path d="M326.384428 792.914842l-29.89781 36.126521 42.978102-25.537713z" fill="#010047" p-id="2652"></path><path d="M757.411192 237.93674c-6.851582-5.605839-17.440389-4.982968-23.046228 1.868613l-31.143553 37.372263 33.635037 28.029197 41.73236-49.829684-21.177616-17.440389z" fill="#FB9470" p-id="2653"></path><path d="M797.274939 291.50365c5.605839-6.851582 4.982968-16.817518-1.868613-22.423358L778.588808 255.377129l-41.73236 49.829684 28.652068 23.669099 31.766423-37.372262z" fill="#FB7A70" p-id="2654"></path><path d="M703.408273 345.830462l28.73927 23.893334-325.730414 391.810803-28.73927-23.893334z" fill="#396B8C" p-id="2655"></path><path d="M344.235912 709.512409l325.574696-391.910463 34.021217 28.253431-325.574696 391.910462z" fill="#5A9CA5" p-id="2656"></path><path d="M421.060827 619.13382c6.851582 0.622871 124.574209 8.097324 124.574209 8.097324l-16.817518-146.997567-107.756691 138.900243z" fill="" p-id="2657"></path><path d="M669.854209 317.689148l33.429489-40.249927 34.021217 28.253431-33.429489 40.249927z" fill="#CFBCB5" p-id="2658"></path><path d="M736.981022 304.814404l28.745499 23.880876-33.441947 40.237469-28.73927-23.880876z" fill="#8584AC" p-id="2659"></path><path d="M698.238443 804.749392c-4.360097 4.360097-11.211679 4.360097-14.948905 0L221.119221 353.167883c-1.868613-1.868613-3.114355-4.360097-3.114355-7.474452s1.245742-5.605839 3.114355-7.474453l89.07056-91.562044c4.360097-4.360097 11.211679-4.360097 14.948905 0l461.547445 451.581509c4.360097 4.360097 4.360097 11.211679 0 15.571776l-88.447688 90.939173z" fill="#DC533A" p-id="2660"></path><path d="M698.238443 804.749392c-1.868613 1.868613-4.982968 3.114355-7.474453 3.114355-3.114355 0-5.605839-1.245742-7.474452-3.114355L221.119221 353.167883c-1.868613-1.868613-3.114355-4.360097-3.114355-7.474452s1.245742-5.605839 3.114355-7.474453l21.800487-21.800487 477.119221 466.530414-21.800486 21.800487z" fill="#C64229" p-id="2661"></path><path d="M274.686131 318.909976c3.114355-18.06326 20.554745-30.520681 38.618005-27.406326 18.06326 3.114355 30.520681 20.554745 27.406326 38.618005-3.114355 18.06326-20.554745 30.520681-38.618005 27.406326-18.686131-3.114355-30.520681-20.554745-27.406326-38.618005z" fill="#F5F5F5" p-id="2662"></path><path d="M705.712895 713.810219m-33.635036 0a33.635036 33.635036 0 1 0 67.270073 0 33.635036 33.635036 0 1 0-67.270073 0Z" fill="#F5F5F5" p-id="2663"></path><path d="M418.083504 337.53382l4.87708 4.808564-49.424818 50.109976-4.87708-4.814793zM689.057324 604.54618l4.87708 4.808565-49.437275 50.097518-4.87708-4.814793zM482.475912 400.805061l4.870852 4.808564-49.406131 50.128662-4.883309-4.814793zM435.885158 354.706375l4.87708 4.808564-24.927299 25.288565-4.87708-4.814794zM458.04691 376.762238l4.889538 4.808565-24.902385 25.307251-4.883309-4.802336zM505.459854 423.614599l4.883309 4.802335-24.87747 25.325937-4.889537-4.802336zM527.690122 445.726521l4.883309 4.808564-24.889927 25.319708-4.889538-4.808564z" fill="#FCEDEB" p-id="2664"></path><path d="M555.931095 473.126618l4.870851 4.808564-49.437274 50.097519-4.877081-4.814793zM620.684769 536.821411l4.883309 4.808565-49.362531 50.172262-4.883309-4.802335zM573.782579 491.177421l4.87708 4.814793-24.92107 25.288565-4.883309-4.814794zM595.882044 512.361265l4.895766 4.796107-24.858783 25.350852-4.895767-4.796107zM643.8182 559.718151l4.870851 4.814793-24.964671 25.251192-4.870852-4.821022zM665.575085 581.344234l4.870852 4.814793-24.945986 25.257421-4.87708-4.814793z" fill="#FCEDEB" p-id="2665"></path></svg>