<?xml version="1.0" standalone="no"?><!DOCTYPE svg PUBLIC "-//W3C//DTD SVG 1.1//EN" "http://www.w3.org/Graphics/SVG/1.1/DTD/svg11.dtd"><svg t="1503474833662" class="icon" style="" viewBox="0 0 1024 1024" version="1.1" xmlns="http://www.w3.org/2000/svg" p-id="3374" xmlns:xlink="http://www.w3.org/1999/xlink" width="200" height="200"><defs><style type="text/css"></style></defs><path d="M511.377753 0.001246C228.594642 0.624116-0.621625 229.840382 0.001246 512.623493c0 37.995088 4.360092 75.367305 12.457406 110.870912 51.075364 229.216266 255.999689 400.505595 500.787711 400.505595 244.788023-0.62287 449.089478-172.53507 499.541972-401.751336 8.097314-35.503606 11.834535-72.875824 11.834535-110.870911-0.62287-282.783111-230.462007-511.999377-513.245117-511.376507" fill="#34495E" p-id="3375"></path><path d="M682.044212 824.681508H371.231938v-14.326017c0-9.965925 8.097314-17.440368 17.440368-17.440368h275.308667c9.965925 0 17.440368 8.097314 17.440368 17.440368v14.326017z" fill="#1AAEC3" p-id="3376"></path><path d="M642.803383 792.915123H409.849896l-33.012126-237.31358h299.600609z" fill="#FBA22E" p-id="3377"></path><path d="M642.803383 792.915123l25.537682-185.615346-271.571445 11.834535 236.067839 173.780811z" fill="" p-id="3378"></path><path d="M707.581893 601.693944c0 9.965925-8.097314 17.440368-17.440368 17.440368H362.511754c-9.965925 0-17.440368-8.097314-17.440368-17.440368V573.041911c0-9.965925 8.097314-17.440368 17.440368-17.440368h327.629771c9.965925 0 17.440368 8.097314 17.440368 17.440368v28.652033z" fill="#E75836" p-id="3379"></path><path d="M532.555342 555.601543h-12.457405V414.832858c0-23.046201-18.686109-123.328317-103.396468-154.471832l4.360092-11.834535c91.561932 33.634996 111.493782 141.391555 111.493781 166.306367v140.768685z" fill="#A3A3A3" p-id="3380"></path><path d="M531.309602 385.557954h1.24574c14.326017-47.338142 16.817498-102.773598 14.326017-148.243128l-12.457406 3.114351c1.245741 42.35518-1.245741 92.184803-14.326016 134.539982 4.360092 3.114351 8.097314 6.851573 11.211665 10.588795z" fill="#A3A3A3" p-id="3381"></path><path d="M526.32664 400.506841h-1.245741c-3.114351-0.62287-5.605833-4.360092-4.360092-7.474443 0.62287-1.868611 12.457406-51.698234 44.846661-61.664159 16.817498-5.605833 36.126477 1.245741 56.058326 19.308979 2.491481 2.491481 2.491481 6.228703 0.62287 8.720184-2.491481 2.491481-6.228703 2.491481-8.720184 0.62287-16.817498-14.948887-31.766385-20.55472-44.223791-16.817497-25.537682 8.097314-36.749347 52.321104-36.749347 52.943974-0.62287 2.491481-3.114351 4.360092-6.228702 4.360092zM526.32664 452.205075c-3.114351 0-5.605833-1.868611-6.228703-4.982962 0-0.62287-11.211665-44.846661-36.749347-52.943975-12.457406-3.737222-27.406293 1.868611-44.223791 16.817498-2.491481 2.491481-6.228703 1.868611-8.720184-0.62287-2.491481-2.491481-1.868611-6.228703 0.62287-8.720184 19.931849-18.063238 39.240828-24.291941 56.058326-19.308979 32.389255 9.965925 44.846661 59.795548 44.846661 61.664158 0.62287 3.114351-1.245741 6.851573-4.360092 7.474444 0 0.62287-0.62287 0.62287-1.24574 0.62287z" fill="#A3A3A3" p-id="3382"></path><path d="M718.793559 457.810908c0.62287-16.817498-18.063238-117.722485-77.235916-115.853874-10.588795 0.62287-19.931849 4.982962-26.783423 11.834536 47.338142 23.046201 80.350267 58.549807 104.019339 104.019338z" fill="#75AB45" p-id="3383"></path><path d="M615.397091 354.41444c-4.982962 5.605833-8.720184 12.457406-9.965925 19.931849-16.194628 95.299154 95.922024 46.715272 111.493782 84.087489 1.245741 2.491481 1.868611 2.491481 1.868611-0.62287-23.669071-45.469531-56.681196-80.973138-103.396468-103.396468z" fill="#8FBD45" p-id="3384"></path><path d="M444.107761 387.426565c-91.561932-52.943975-140.145815 93.430543-124.574057 76.613046 2.491481-3.114351 5.605833-4.982962 9.343054-5.605833 32.389255-28.652033 77.858786-44.22379 124.574058-52.321104-0.62287-8.097314-3.114351-15.571757-9.343055-18.686109z" fill="#75AB45" p-id="3385"></path><path d="M328.876758 457.810908c35.503606-10.588795 115.231003 52.943975 124.574058-48.583883v-3.737221c-46.715272 8.097314-92.184803 23.046201-124.574058 52.321104z" fill="#8FBD45" p-id="3386"></path><path d="M446.599243 266.589729c0-1.245741 0.62287-1.868611 0.62287-3.114351 4.360092-85.9561-118.345355-62.909899-138.900074-54.189715 47.961012 9.965925 107.13369 16.817498 138.277204 57.304066z" fill="#75AB45" p-id="3387"></path><path d="M308.322039 208.662792c-3.114351 1.245741-4.360092 2.491481-0.622871 2.491482 42.97805 0.62287 34.880736 118.345355 134.539983 61.041288 2.491481-1.245741 3.737222-3.737222 4.360092-6.228703-31.143514-39.863698-90.316192-46.715272-138.277204-57.304067z" fill="#8FBD45" p-id="3388"></path><path d="M533.801083 290.2588l7.474443 55.435456s8.097314-47.961012 4.360092-79.104527l-11.834535 23.669071z" fill="#3B3B3B" p-id="3389"></path><path d="M600.448204 251.017972h-1.868611v-0.62287c0.62287 0 1.245741 0.62287 1.868611 0.62287 6.851573 1.868611 14.326017-2.491481 15.571757-9.343054 1.868611-6.851573-2.491481-14.326017-9.343054-15.571758h-1.868611l-21.17759-4.982962 4.982962-20.554719c0-0.62287 0.62287-1.245741 0.622871-1.868611 1.868611-6.851573-2.491481-14.326017-9.343055-15.571757-6.851573-1.868611-14.326017 2.491481-15.571757 9.343054v1.868611h-0.62287c0-0.62287 0.62287-1.245741 0.62287-1.868611 1.868611-6.851573-2.491481-14.326017-9.343054-15.571757-6.851573-1.868611-14.326017 2.491481-15.571757 9.343054v1.868611l-4.982963 20.554719-23.669071-6.228703c-0.62287 0-1.245741-0.62287-1.868611-0.62287-6.851573-1.868611-14.326017 2.491481-15.571757 9.343055-1.868611 6.851573 2.491481 14.326017 9.343055 15.571757h1.86861v0.62287c-0.62287 0-1.245741-0.62287-1.86861-0.62287-6.851573-1.868611-14.326017 2.491481-15.571758 9.343054-1.868611 6.851573 2.491481 14.326017 9.343055 15.571757h1.868611l21.177589 4.982963-4.360092 16.817497c0 0.62287-0.62287 1.245741-0.62287 1.868611-1.868611 6.851573 2.491481 14.326017 9.343054 15.571757 6.851573 1.868611 14.326017-2.491481 15.571758-9.343054v-1.868611h0.62287c0 0.62287-0.62287 1.245741-0.62287 1.868611-1.868611 6.851573 2.491481 14.326017 9.343054 15.571757 6.851573 1.868611 14.326017-2.491481 15.571757-9.343054v-1.868611l4.360092-16.817498 21.17759 4.982963c0.62287 0 1.245741 0.62287 1.868611 0.62287 6.851573 1.868611 14.326017-2.491481 15.571757-9.343054 4.360092-5.605833 0-12.457406-6.851573-14.326017z" fill="#FFFFFF" p-id="3390"></path><path d="M551.241451 239.183437m-21.80046 0a21.80046 21.80046 0 1 0 43.60092 0 21.80046 21.80046 0 1 0-43.60092 0Z" fill="#FFA436" p-id="3391"></path></svg>